<?xml version="1.0" encoding="utf-8"?>
<!-- Generator: Adobe Illustrator 27.5.0, SVG Export Plug-In . SVG Version: 6.00 Build 0)  -->
<svg version="1.1" id="Layer_1" xmlns="http://www.w3.org/2000/svg" xmlns:xlink="http://www.w3.org/1999/xlink" x="0px" y="0px"
	 viewBox="0 0 314.972 299.924" style="enable-background:new 0 0 314.972 299.924;" xml:space="preserve">
<g>
	<g>
		<path style="fill:#A8D052;" d="M187.249,208.394c0,0,22.054,0.021,44.894,17.066c5.113-6.136,41.695-30.021,46.809-34.111
			c5.114-4.091,6.136-9.204,6.136-16.023s8.182-21.818,15-32.727c3.068-5.795-1.023-13.636-8.523-13.295
			c-6.818-0.682-11.25-11.591-12.613-23.863c-2.045-5.114-20.454-4.432-27.954-26.25c-7.5-6.818-9.545-3.75-20.113-3.75
			c-10.568,0-19.091-2.386-24.886-8.863c-5.454,1.023-8.523,0-10.568,3.75c-2.045,3.75-9.545,15.682-27.272,16.363
			c-2.727,5.795-11.25,8.523-11.25,8.523s-0.341,16.704,7.841,28.977c8.182,12.272,20.113,30,18.75,45.34
			C182.135,184.872,174.976,194.758,187.249,208.394z"/>
		<path style="fill:#829B0F;" d="M232.143,225.957c-0.104,0-0.208-0.032-0.298-0.099c-22.432-16.741-44.379-16.967-44.598-16.967
			c-0.141,0-0.276-0.06-0.369-0.164c-9.314-10.347-7.602-18.749-5.621-28.477c0.688-3.383,1.401-6.881,1.747-10.763
			c1.334-15.019-10.091-32.154-18.433-44.666l-0.237-0.354c-8.173-12.26-7.928-29.094-7.924-29.263
			c0.004-0.212,0.144-0.398,0.345-0.463c0.083-0.027,8.351-2.732,10.953-8.261c0.079-0.168,0.245-0.277,0.43-0.285
			c16.659-0.641,24.33-11.476,26.855-16.105c1.617-2.965,3.883-3.185,7.019-3.491c1.142-0.111,2.437-0.237,3.894-0.51
			c0.171-0.032,0.347,0.027,0.462,0.157c5.31,5.934,13.1,8.698,24.516,8.698c2.868,0,5.064-0.224,7-0.422
			c5.047-0.516,7.835-0.801,13.447,4.301c0.062,0.056,0.109,0.127,0.136,0.206c5.008,14.567,14.934,18.958,21.502,21.863
			c3.313,1.466,5.708,2.524,6.444,4.364c0.016,0.041,0.027,0.085,0.032,0.129c1.515,13.642,6.293,22.836,12.169,23.424
			c3.479-0.168,6.604,1.426,8.465,4.364c1.868,2.949,2.039,6.65,0.446,9.657c-3.518,5.633-14.941,24.53-14.941,32.495
			c0,7.008-1.058,12.198-6.322,16.41c-1.649,1.319-6.449,4.615-12.527,8.788c-12.256,8.415-30.775,21.132-34.21,25.254
			C232.427,225.896,232.286,225.957,232.143,225.957z M187.475,207.902c2.388,0.067,23.243,1.117,44.598,16.887
			c4.157-4.522,21.411-16.37,34.1-25.083c6.061-4.162,10.848-7.449,12.469-8.746c4.955-3.964,5.95-8.921,5.95-15.634
			c0-8.229,11.539-27.331,15.074-32.99c1.409-2.663,1.252-5.981-0.424-8.63c-1.666-2.628-4.452-4.049-7.654-3.906
			c-7.786-0.773-11.919-13.521-13.122-24.234c-0.624-1.432-2.956-2.464-5.897-3.765c-6.709-2.967-16.837-7.447-21.999-22.327
			c-5.218-4.716-7.537-4.478-12.584-3.963c-1.863,0.19-4.183,0.427-7.101,0.427c-11.587,0-19.563-2.805-25.069-8.823
			c-1.388,0.247-2.616,0.367-3.708,0.473c-3.042,0.296-4.877,0.475-6.242,2.978c-2.591,4.75-10.43,15.832-27.392,16.609
			c-2.611,5.143-9.435,7.816-11.07,8.394c0.013,2.446,0.404,17.313,7.76,28.346l0.236,0.354
			c8.425,12.635,19.961,29.938,18.595,45.305c-0.349,3.937-1.067,7.463-1.762,10.872
			C180.236,190.249,178.658,198.003,187.475,207.902z"/>
	</g>
	<path style="fill:#A8D052;" d="M172.61,91.326c0.057,2.539,0.184,5.342,1.249,7.707c4.092-3.621,6.436-8.861,10.477-12.559
		c0.186-0.17,0.754-0.43,0.755,0.028c0.009,3.141,0.403,6.402,2.106,9.103c4.154-5.671,7.122-12.193,12.318-17.063
		c0.182-0.17,0.501-0.222,0.575,0.07c0.785,3.118,1.786,6.362,3.789,8.931c4.321-3.518,8.642-7.037,12.952-10.569
		c1.056-0.866,2.103-1.743,3.157-2.611c-5.627-1.262-10.347-3.715-13.989-7.786c-5.454,1.023-8.523,0-10.568,3.75
		c-1.863,3.415-8.276,13.586-22.786,15.897C172.611,87.925,172.571,89.625,172.61,91.326z"/>
	<path style="fill:#A8D052;" d="M257.531,90.958c-0.335,1.49-0.612,2.99-0.856,4.473c-0.389,2.36-0.702,4.732-1.036,7.1
		c-0.406,2.876-1.19,5.691-1.913,8.501c-1.644,6.391-3.445,12.755-4.493,19.279c-0.39,2.432-0.97,4.961-0.909,7.441
		c0.03,1.239,0.226,2.739,1.254,3.578c0.913,0.744,2.192,0.701,3.285,0.5c1.885-0.347,3.681-1.222,5.362-2.109
		c2.575-1.359,5.068-2.874,7.644-4.236c2.676-1.415,5.383-2.77,8.113-4.075c3.957-1.892,7.971-3.655,12.005-5.371
		c-3.667-4.244-6.089-12.089-7.035-20.597C277.374,101.497,266.064,100.99,257.531,90.958z"/>
	<path style="fill:#A8D052;" d="M263.439,162.46c-2.525,0.735-5.382,1.614-7.592,3.204c5.769,1.952,12.092,1.366,18.083,1.182
		c3.211-0.099,6.425-0.06,9.636-0.168c1.266-0.042,2.53-0.113,3.795-0.177c1.422-3.576,3.393-7.602,5.578-11.651
		c-6.25,1.874-12.444,3.867-18.857,5.171C270.517,160.746,266.935,161.443,263.439,162.46z"/>
	<path style="fill:#96BA4A;" d="M291.565,129.304c-6.818-0.682-11.25-11.591-12.613-23.863c-2.045-5.114-20.454-4.432-27.954-26.25
		c-6.383-5.803-8.833-4.447-15.931-3.914c0.562,0.235,1.127,0.463,1.673,0.716c1.681,0.778,3.335,1.625,5.003,2.433
		c2.604,1.261,5.191,2.601,7.242,4.684c2.622,2.663,4.427,6.127,6.345,9.3c1.186,1.962,2.372,3.943,3.81,5.733
		c0.658,0.819,1.258,1.469,2.22,1.906c0.827,0.375,1.69,0.668,2.551,0.956c1.655,0.553,3.419,1.034,4.876,2.029
		c1.305,0.891,2.332,2.329,3.096,3.69c1.939,3.453,2.486,7.473,3.626,11.216c0.57,1.87,1.235,3.845,2.656,5.24
		c1.35,1.325,3,2.28,4.678,3.128c2.939,1.485,6.405,2.661,8.539,5.31c5.131,6.367-3.508,12.32-6.537,17.245
		c-4.444,7.225-5.783,15.41-7.604,23.548c-0.879,3.926-1.955,7.822-3.692,11.465c-1.835,3.848-4.393,7.263-7.581,10.096
		c-6.59,5.856-14.885,9.289-21.869,14.606c-5.56,4.234-9.966,9.851-12.987,16.138c0.343,0.249,0.686,0.489,1.029,0.745
		c5.113-6.136,41.695-30.021,46.809-34.111c5.113-4.091,6.136-9.204,6.136-16.023s8.182-21.818,15-32.727
		C303.156,136.804,299.065,128.963,291.565,129.304z"/>
	<g>
		<path style="fill:#829B0F;" d="M233.775,135.276c-5.582,8.593-12.667,15.837-20.812,22.02c-0.342,0.26-0.465,1.15,0.143,0.743
			c8.621-5.762,15.869-13.756,21.144-22.659C234.554,134.868,234.002,134.927,233.775,135.276z"/>
		<path style="fill:#829B0F;" d="M284,140.059c-18.887,6.342-37.339,13.922-55.382,22.363c-5.165,2.417-10.282,4.922-15.327,7.579
			c-0.382,0.201-0.78,1.378-0.094,1.049c9.099-4.366,18.191-8.748,27.421-12.835c9.072-4.017,18.227-7.845,27.464-11.465
			c5.233-2.05,10.478-4.07,15.746-6.026C284.083,140.631,284.469,139.901,284,140.059z"/>
		<path style="fill:#829B0F;" d="M247.518,177.947c-6.554-0.307-13.109-0.354-19.668-0.199c-6.673,0.158-13.367,0.419-20.001,1.187
			c-0.347,0.04-0.949,0.951-0.408,0.924c6.595-0.329,13.18-0.817,19.782-1.026c6.634-0.21,13.278-0.252,19.915-0.202
			C247.379,178.633,247.789,177.96,247.518,177.947z"/>
		<path style="fill:#829B0F;" d="M228.074,193.954c-4.381-1.039-8.778-2.007-13.19-2.91c-4.451-0.91-8.914-1.954-13.424-2.525
			c-0.251-0.032-0.769,0.592-0.447,0.683c4.329,1.23,8.814,1.976,13.225,2.854c4.474,0.891,8.96,1.714,13.459,2.469
			C227.915,194.563,228.327,194.014,228.074,193.954z"/>
		<path style="fill:#829B0F;" d="M192.05,98.71c-3.641,7.59-5.936,15.9-6.36,24.321c-0.029,0.576,0.926-0.19,0.96-0.587
			c0.707-8.241,2.646-16.288,6.086-23.824C193.014,98.009,192.213,98.368,192.05,98.71z"/>
		<path style="fill:#829B0F;" d="M181.328,112.024c-0.033-3.737,0.147-7.482,0.495-11.202c0.031-0.329-0.546,0.156-0.577,0.375
			c-1.057,7.457-1.325,15.246-0.209,22.713c0.089,0.593,0.976-0.179,0.943-0.578C181.668,119.568,181.361,115.804,181.328,112.024z"
			/>
		<path style="fill:#829B0F;" d="M167.953,110.149c-0.13-0.314-0.767,0.294-0.661,0.576c2.36,6.254,3.817,12.721,4.77,19.327
			c0.08,0.556,0.928-0.173,0.892-0.551C172.321,122.852,170.497,116.313,167.953,110.149z"/>
	</g>
	<g>
		<path style="fill:#96BA4A;" d="M215.651,199.101c1.175-3.524,7.049-3.524,38.768-2.35c-10.573-4.112-30.544-8.224-29.37-12.923
			c1.175-4.699,29.957-4.699,50.516-7.049c-15.86-5.287-49.928-1.175-41.705-9.986c8.223-8.811,57.565-25.845,49.969-26.069
			c-21.105,2.126-61.717,19.608-53.494,6.685c8.223-12.923,12.335-22.908,12.923-45.817c-0.587-24.67-22.908-17.034-35.244-6.461
			c-12.335,10.573-14.055,8.825-15.382,1.054c-11.372,24.45-9.666,13.268-10.803,1.327c-2.843,7.013-2.643,17.63-6.505,14.872
			c-2.196-1.568-5.46-14.014-7.87-24.463c-3.247,4.948-10.547,7.292-10.547,7.292s-0.341,16.704,7.841,28.977
			c8.182,12.273,20.113,30,18.75,45.34c-1.364,15.341-8.523,25.227,3.75,38.863c0,0,22.054,0.021,44.895,17.066
			c2.283-2.739,10.838-9.016,20.064-15.489C232.599,202.263,214.695,201.969,215.651,199.101z"/>
	</g>
	<g>
		<path style="fill:#93B438;" d="M223.828,160.248c2.674,0.219,5.558-0.125,8.066-0.817c1.651-0.456,3.287-1.04,4.936-1.563
			c-1.481,0.862-3.037,1.618-4.503,2.412c-2.932,1.589-6.003,3.258-8.298,5.729c-1.926,2.073-3.158,5.085-1.982,7.849
			c0.807,1.898,2.619,2.926,4.53,3.514c-2.979,0.466-5.999,1.241-8.573,2.818c-2.113,1.295-4.587,3.771-4.171,6.487
			c0.383,2.506,2.898,3.709,5.055,4.431c1.278,0.428,2.592,0.73,3.917,0.979c-4.71,0.714-9.637,1.03-13.49,3.929
			c-2.218,1.669-3.703,4.298-2.953,7.109c0.768,2.876,3.312,4.927,5.682,6.5c6.453,4.283,13.804,7.392,21.155,9.745
			c1.448,0.464,2.911,0.885,4.38,1.286c-2.579,2.026-4.52,3.704-5.437,4.804c-22.841-17.045-44.895-17.066-44.895-17.066
			c-12.272-13.636-5.113-23.522-3.75-38.863c1.364-15.341-10.568-33.068-18.75-45.34c-1.588-2.382-2.851-4.93-3.862-7.491
			c1.102,0.82,2.396,1.385,3.72,1.728c3.812,0.989,8.033,0.389,11.662-1.017c1.755-0.68,3.458-1.576,4.968-2.71
			c0.252,0.906,0.683,1.813,1.58,2.195c0.911,0.387,1.942,0.057,2.773-0.376c1.749-0.911,3.362-2.418,4.561-4.064
			c0.34,2.77,1.481,5.424,2.858,7.829c1.835,3.205,4.202,6.114,6.824,8.707c2.361,2.335,4.968,4.484,7.921,6.031
			c3.452,1.808,7.33,3.392,11.19,3.044c5.775-0.521,10.483,0.571,14.832-2.79C230.081,145.052,216.235,159.625,223.828,160.248z"/>
	</g>
	<g>
		<g>
			<path style="fill:#A8D052;" d="M201.305,187.573c13.216-20.706,15.419-28.635,7.049-46.037
				c-7.905-16.434-21.952-31.124-43.505-17.197c8.179,12.267,20.008,29.912,18.65,45.191c-1.364,15.341-8.523,25.227,3.75,38.863
				c0,0,2.117,0.1,5.721,0.751C192.886,205.02,194.478,198.269,201.305,187.573z"/>
			<path style="fill:#829B0F;" d="M192.969,209.642c-0.03,0-0.059-0.003-0.088-0.008c-3.523-0.637-5.635-0.743-5.656-0.744
				c-0.133-0.006-0.257-0.065-0.346-0.164c-9.314-10.347-7.602-18.749-5.621-28.477c0.688-3.383,1.401-6.881,1.747-10.763
				c1.335-15.02-10.09-32.154-18.432-44.665l-0.137-0.207c-0.075-0.111-0.101-0.246-0.074-0.376c0.027-0.13,0.105-0.244,0.217-0.316
				c7.982-5.159,15.539-6.79,22.479-4.836c10.561,2.972,17.653,13.732,21.744,22.235c8.507,17.69,6.136,25.816-7.078,46.519l0,0
				c-5.588,8.753-8.365,15.918-8.258,21.295c0.003,0.149-0.061,0.291-0.175,0.387C193.201,209.6,193.087,209.642,192.969,209.642z
				 M187.482,207.91c0.58,0.039,2.326,0.184,4.989,0.642c0.094-5.499,2.923-12.642,8.414-21.246l0,0
				c14.446-22.63,14.479-30.047,7.021-45.554c-4.001-8.319-10.914-18.837-21.118-21.71c-6.526-1.837-13.67-0.341-21.246,4.443
				c8.411,12.614,19.81,29.808,18.45,45.089c-0.349,3.937-1.067,7.463-1.762,10.872C180.235,190.253,178.656,198.008,187.482,207.91
				z"/>
		</g>
	</g>
	<g>
		<path style="fill:#A8D052;" d="M201.305,187.573c13.216-20.706,15.419-28.635,7.049-46.037
			c-7.905-16.434-21.952-31.124-43.505-17.197c8.179,12.267,20.008,29.912,18.65,45.191c-1.364,15.341-8.523,25.227,3.75,38.863
			c0,0,2.117,0.1,5.721,0.751C192.886,205.02,194.478,198.269,201.305,187.573z"/>
	</g>
	<g>
		<path style="fill:#A8D052;" d="M180.682,127.922c0.36-2.739,1.634-5.448,4.868-5.164c3.115,0.274,5.567,2.366,8.205,3.785
			c2.075,1.116,4.315,1.93,6.286,3.236c0.928,0.615,1.8,1.305,2.621,2.051c-8.332-11.566-20.706-18.545-37.813-7.491
			c1.085,1.628,2.236,3.353,3.411,5.152C172.192,126.587,176.985,124.633,180.682,127.922z"/>
	</g>
	<g>
		<path style="fill:#93B438;" d="M210.246,145.803c-0.12,2.846-0.892,5.729-2.689,7.899c-1.925,2.325-4.828,3.077-7.696,3.477
			c-1.357,0.189-2.73,0.296-4.073,0.575c-1.061,0.22-2.241,0.573-2.975,1.424c-0.843,0.977-0.763,2.362-0.564,3.555
			c0.475,2.849,1.279,5.633,1.837,8.465c0.549,2.791,0.814,5.649,0.373,8.475c-0.397,2.545-1.402,4.994-2.243,7.42
			c-0.833,2.406-1.701,4.801-2.756,7.119c-0.835,1.836-1.74,3.714-3.381,4.967c-1.172,0.895-2.531,1.387-3.96,1.629
			c1.102,2.433,2.746,4.939,5.129,7.587c0,0,2.117,0.1,5.721,0.751c-0.083-4.125,1.508-10.876,8.335-21.572
			C213.387,168.645,216.235,160.373,210.246,145.803z"/>
	</g>
	<g>
		<g>
			<path style="fill:#FFFDF8;" d="M156.908,95.214c0,0-0.388-13.225,1.199-13.622c1.587-0.397,10.051,5.099,10.051,5.099
				S165.628,93.163,156.908,95.214z"/>
			<path style="fill:#DCBE7B;" d="M156.908,95.711c-0.109,0-0.215-0.035-0.303-0.103c-0.118-0.091-0.189-0.23-0.194-0.38
				c-0.181-6.215-0.056-13.71,1.576-14.118c1.665-0.429,8.414,3.848,10.442,5.165c0.198,0.128,0.278,0.378,0.193,0.598
				c-0.107,0.274-2.729,6.739-11.6,8.825C156.984,95.706,156.945,95.711,156.908,95.711z M158.34,82.062
				c-0.043,0-0.08,0.004-0.113,0.012c-0.686,0.562-0.974,6.81-0.84,12.507c6.752-1.807,9.477-6.381,10.139-7.706
				C163.77,84.462,159.407,82.062,158.34,82.062z"/>
		</g>
		<path style="fill:#F3E6D0;" d="M163.675,92.1c3.343-2.528,4.482-5.409,4.482-5.409s-6.266-4.066-9.022-4.945
			C160.576,85.231,162.082,88.686,163.675,92.1z"/>
		<g>
			<path style="fill:#FFFDF8;" d="M195.801,69.213c0,0,3.899-10.533,5.814-10.67c1.915-0.137,5.404,8.892,5.404,8.892
				S202.436,72.633,195.801,69.213z"/>
			<path style="fill:#DCBE7B;" d="M200.284,70.868c-1.418,0-3.001-0.332-4.71-1.212c-0.223-0.115-0.326-0.379-0.238-0.615
				c0.941-2.542,4.171-10.845,6.245-10.993c2.096-0.105,5.053,7.01,5.902,9.208c0.067,0.173,0.032,0.369-0.09,0.508
				C207.355,67.805,204.589,70.868,200.284,70.868z M196.423,68.966c5.307,2.487,9.103-0.746,10.017-1.646
				c-1.798-4.577-4.005-8.353-4.791-8.281C200.724,59.105,198.242,64.147,196.423,68.966z"/>
		</g>
		<path style="fill:#F3E6D0;" d="M202.293,58.818c0.123,0.927,0.193,1.862,0.226,2.779c0.079,2.172-0.085,4.379-0.532,6.507
			c-0.156,0.742-0.357,1.475-0.579,2.201c3.47-0.448,5.61-2.87,5.61-2.87S204.251,60.283,202.293,58.818z"/>
		<g>
			<path style="fill:#FFFDF8;" d="M238.531,75.234c0,0,9.141-9.692,13.437-9.031c4.295,0.661,0,15.749,0,15.749
				S247.672,75.455,238.531,75.234z"/>
			<path style="fill:#DCBE7B;" d="M251.967,82.45c-0.164,0-0.321-0.082-0.414-0.223c-0.041-0.063-4.277-6.285-13.034-6.496
				c-0.197-0.005-0.371-0.124-0.446-0.305c-0.076-0.181-0.037-0.389,0.097-0.532c0.379-0.404,9.381-9.88,13.873-9.182
				c0.647,0.1,1.168,0.453,1.552,1.051c2.201,3.43-1.012,14.842-1.15,15.326c-0.053,0.187-0.21,0.325-0.401,0.354
				C252.018,82.448,251.993,82.45,251.967,82.45z M239.648,74.795c6.733,0.536,10.659,4.346,12.102,6.061
				c0.966-3.718,2.492-11.244,1.009-13.556c-0.226-0.353-0.511-0.551-0.867-0.606C248.867,66.228,242.613,71.806,239.648,74.795z"/>
		</g>
		<path style="fill:#F3E6D0;" d="M252.234,66.276c-0.404,1.613-0.875,3.204-1.596,4.707c-1.096,2.286-2.575,4.373-4.276,6.249
			c3.778,1.982,5.605,4.72,5.605,4.72S256.07,67.531,252.234,66.276z"/>
		<g>
			<path style="fill:#FFFDF8;" d="M269.589,99.905c0,0,9.472-2.423,13.437-2.423c2.423,0.22-3.524,10.353-3.524,10.353
				S271.792,108.936,269.589,99.905z"/>
			<path style="fill:#DCBE7B;" d="M278.781,108.367c-2.105,0-7.817-0.726-9.674-8.344c-0.065-0.265,0.096-0.532,0.36-0.599
				c0.389-0.1,9.578-2.439,13.56-2.439c0.433,0.037,0.743,0.242,0.915,0.577c0.938,1.827-2.832,8.517-4.011,10.525
				c-0.076,0.13-0.208,0.219-0.358,0.24C279.557,108.329,279.264,108.367,278.781,108.367z M270.196,100.265
				c2.012,7.255,7.76,7.196,9.003,7.103c2.236-3.847,4.32-8.453,3.858-9.352C279.627,97.956,272.174,99.777,270.196,100.265z"/>
		</g>
		<path style="fill:#F3E6D0;" d="M280.842,100.604c-2.41,2.033-5.035,3.781-7.802,5.276c2.959,2.443,6.462,1.954,6.462,1.954
			s4.378-7.467,4.076-9.712C282.691,98.981,281.78,99.813,280.842,100.604z"/>
		<g>
			<path style="fill:#FFFDF8;" d="M290.735,132.065c0,0,7.269-2.643,15.199,1.542c5.947,3.304,4.626,3.745-1.762,7.269
				c-6.388,3.524-7.063,6.326-9.912,1.101C291.616,137.131,293.379,135.809,290.735,132.065z"/>
			<path style="fill:#DCBE7B;" d="M297.12,145.359c-0.162,0-0.322-0.019-0.484-0.058c-0.938-0.229-1.726-1.094-2.813-3.085
				c-1.334-2.446-1.583-4.036-1.802-5.438c-0.219-1.399-0.409-2.607-1.692-4.426c-0.089-0.127-0.114-0.287-0.067-0.435
				c0.045-0.147,0.158-0.265,0.304-0.318c0.304-0.112,7.567-2.67,15.6,1.57c2.713,1.507,4.084,2.481,4.082,3.637
				c-0.003,1.3-1.695,2.23-5.065,4.082l-0.771,0.424c-1.562,0.862-2.788,1.687-3.774,2.351
				C299.159,144.654,298.112,145.359,297.12,145.359z M291.523,132.348c1.078,1.708,1.273,2.959,1.48,4.275
				c0.216,1.388,0.441,2.822,1.692,5.116c0.911,1.67,1.562,2.446,2.177,2.596c0.722,0.173,1.71-0.492,3.21-1.499
				c1.003-0.674,2.25-1.513,3.849-2.395l0.772-0.425c2.641-1.452,4.549-2.5,4.55-3.214c0.001-0.689-1.8-1.782-3.56-2.761
				C299.374,130.705,293.413,131.846,291.523,132.348z"/>
		</g>
		<path style="fill:#F3E6D0;" d="M299.738,138.165c-2.071,0.459-4.312,0.943-6.476,1.635c0.238,0.646,0.551,1.358,0.998,2.177
			c2.85,5.225,3.524,2.423,9.912-1.101c3.862-2.131,5.856-3.136,5.527-4.327C306.346,136.873,303.013,137.44,299.738,138.165z"/>
		<g>
			<path style="fill:#FFFDF8;" d="M284.782,177.533c0,0,7.189,14.666,6.327,16.391c-0.863,1.725-14.666,1.15-17.542,0.431
				c-2.444-0.863-0.288-8.915,2.444-10.496C278.743,182.277,277.737,174.513,284.782,177.533z"/>
			<path style="fill:#DCBE7B;" d="M283.652,195.554c-4.35,0-9.076-0.434-10.205-0.717c-0.591-0.206-1.273-0.759-1.417-2.301
				c-0.268-2.878,1.493-7.812,3.732-9.107c0.766-0.444,1.228-1.581,1.717-2.785c0.636-1.567,1.357-3.344,3.004-4.021
				c1.177-0.485,2.65-0.338,4.493,0.453c0.11,0.047,0.198,0.131,0.251,0.238c1.712,3.492,7.227,15.027,6.326,16.831
				C291.017,195.217,287.482,195.554,283.652,195.554z M281.973,177.337c-0.411,0-0.78,0.068-1.111,0.204
				c-1.261,0.519-1.871,2.022-2.462,3.476c-0.554,1.366-1.078,2.657-2.14,3.271c-1.882,1.089-3.472,5.663-3.24,8.154
				c0.052,0.562,0.217,1.269,0.713,1.443c3.3,0.822,16.147,1.062,16.934-0.188c0.423-1.016-2.831-8.79-6.25-15.781
				C283.475,177.531,282.665,177.337,281.973,177.337z"/>
		</g>
		<path style="fill:#F3E6D0;" d="M285.039,191.746c-3.188-2.452-6.253-5.054-9.274-7.707c-2.611,1.904-4.568,9.48-2.198,10.316
			c2.283,0.571,11.45,1.05,15.564,0.36C287.743,193.758,286.374,192.773,285.039,191.746z"/>
		<g>
			<path style="fill:#FFFDF8;" d="M229.5,222.597c0,0,7.93,8.15,11.454,8.15c3.524,0,2.864-17.622,2.423-19.384
				c-0.441-1.762-5.507-3.745-7.71,1.542C233.464,218.191,225.314,218.191,229.5,222.597z"/>
			<path style="fill:#DCBE7B;" d="M240.954,231.243c-3.691,0-11.479-7.962-11.809-8.3c-0.001-0.002-0.003-0.003-0.004-0.005
				c-0.99-1.041-1.402-1.921-1.3-2.771c0.154-1.276,1.443-2.104,2.933-3.064c1.669-1.072,3.559-2.289,4.436-4.391
				c1.492-3.587,4.135-3.785,5.184-3.71c1.66,0.124,3.183,1.107,3.466,2.237c0.357,1.428,1.078,15.918-1.511,19.235
				C241.95,230.985,241.482,231.243,240.954,231.243z M229.859,222.252c2.167,2.226,8.378,7.998,11.095,7.998
				c0.076,0,0.311,0,0.611-0.386c2.216-2.838,1.756-16.681,1.33-18.381c-0.155-0.624-1.252-1.389-2.574-1.488
				c-1.057-0.08-2.995,0.22-4.194,3.1c-0.995,2.389-3.113,3.751-4.814,4.845c-1.281,0.823-2.387,1.534-2.484,2.347
				C228.764,220.812,229.102,221.455,229.859,222.252z"/>
		</g>
		<path style="fill:#F3E6D0;" d="M239.021,227.67c-1.533-4.282-3.053-8.567-4.571-12.853c-3.015,3.452-8.556,3.985-4.951,7.78
			c0,0,6.797,6.98,10.601,8.012C239.742,229.629,239.373,228.653,239.021,227.67z"/>
	</g>
	<g>
		<path style="fill:#A8D052;" d="M14.826,233.989c0,0-4.247,24.064,17.694,37.511c3.893,2.123,9.201,0,9.201,0
			s16.854,30.035,50.789,22.11c6.909,1.626,18.289-3.658,18.289-3.658s24.938,8.124,52.252-9.497
			c17.622-10.279,35.537-18.503,39.062-37.593c3.524-19.09-6.984-29.686-13.341-38.161c-6.357-8.476-4.662-14.409-2.119-25.004
			c2.543-10.595,5.963-17.214-8.497-40.411c-8.134-11.448-11.147-16.268-12.954-21.089c-1.808-4.82-21.089-4.519-36.453-4.218
			c-15.364,0.301-21.088,12.653-21.39,18.98c-4.82-3.917-12.051,0.301-21.39,7.833s-32.536,7.532-28.319,21.39
			c-9.339,0.301-12.653,2.41-15.063,8.737c-2.41,6.327-28.921,23.197-33.139,36.754S14.826,233.989,14.826,233.989z"/>
		<path style="fill:#829B0F;" d="M81.44,295.426c-24.708,0.003-38.098-20.323-39.935-23.318c-1.346,0.462-5.756,1.721-9.223-0.171
			c-20.898-12.808-18.324-35.389-17.978-37.822c-1.123-1.587-9.31-13.804-5.331-26.59c2.593-8.332,13.351-17.791,21.997-25.392
			c5.496-4.833,10.244-9.006,11.152-11.391c2.47-6.487,5.987-8.656,14.879-9.033c-2.312-9.054,6.923-12.276,15.861-15.394
			c4.736-1.653,9.633-3.361,12.794-5.91c9.089-7.328,16.231-11.552,21.279-8.361c0.766-6.476,6.682-18.265,21.802-18.562
			c19.137-0.373,35.116-0.292,36.928,4.54c1.741,4.645,4.633,9.349,12.893,20.975c13.451,21.576,11.567,28.992,9.183,38.382
			c-0.202,0.793-0.406,1.6-0.607,2.432l-0.232,0.962c-2.422,10.058-3.757,15.599,2.264,23.628c0.683,0.91,1.413,1.844,2.168,2.811
			c6.439,8.235,14.451,18.484,11.265,35.739c-3.199,17.324-18.061,25.798-33.795,34.769c-1.828,1.042-3.668,2.091-5.506,3.163
			c-25.929,16.729-50.086,10.296-52.465,9.597c-1.507,0.68-11.707,5.116-18.323,3.639C88.6,295.024,84.907,295.426,81.44,295.426z
			 M41.721,271.004c0.175,0,0.343,0.093,0.433,0.254c0.167,0.298,17.071,29.611,50.244,21.869c0.074-0.018,0.153-0.017,0.226,0
			c6.655,1.565,17.852-3.573,17.965-3.625c0.114-0.053,0.244-0.062,0.363-0.022c0.248,0.08,25.043,7.839,51.828-9.443
			c1.859-1.084,3.703-2.136,5.532-3.179c15.529-8.853,30.196-17.216,33.31-34.086c3.106-16.816-4.753-26.869-11.069-34.947
			c-0.759-0.972-1.494-1.911-2.18-2.826c-6.302-8.403-4.846-14.446-2.435-24.456l0.232-0.962c0.201-0.836,0.406-1.648,0.608-2.445
			c2.327-9.16,4.165-16.396-9.046-37.587c-8.302-11.683-11.22-16.438-12.998-21.176c-1.712-4.568-22.331-4.164-35.976-3.896
			c-15.143,0.297-20.623,12.597-20.904,18.507c-0.009,0.187-0.123,0.353-0.294,0.43c-0.17,0.077-0.37,0.05-0.516-0.068
			c-4.571-3.713-11.606,0.449-20.764,7.834c-3.294,2.656-8.273,4.393-13.09,6.074c-9.095,3.174-17.687,6.171-15.066,14.784
			c0.045,0.148,0.019,0.309-0.071,0.434c-0.089,0.126-0.233,0.202-0.388,0.208c-8.96,0.288-12.239,2.176-14.614,8.416
			c-0.996,2.616-5.599,6.662-11.425,11.785c-8.552,7.519-19.195,16.876-21.704,24.941c-4.096,13.161,5.206,25.745,5.3,25.87
			c0.083,0.11,0.116,0.25,0.092,0.385c-0.041,0.237-3.921,23.894,17.465,37.002c3.612,1.97,8.706-0.018,8.757-0.039
			C41.597,271.015,41.659,271.004,41.721,271.004z"/>
	</g>
	<g>
		<path style="fill:#A8D052;" d="M69.325,168.108c-3.748,2.176-7.141,5.619-7.666,9.921c-0.075,0.613-0.084,1.261,0.184,1.817
			c0.509,1.055,1.865,1.438,3.026,1.279c1.161-0.159,2.221-0.723,3.337-1.08c1.991-0.635,4.125-0.6,6.214-0.558
			c3.148,0.063,6.298,0.126,9.441,0.314c2.254,0.135,4.553,0.329,6.74-0.231c1.335-0.341,2.583-0.954,3.795-1.608
			c4.026-2.172,7.76-4.839,11.483-7.497c1.082-0.773,2.214-1.606,2.736-2.829c0.76-1.778-0.047-3.935-1.491-5.221
			c-1.444-1.286-3.387-1.853-5.293-2.173C91.027,158.432,78.612,162.714,69.325,168.108z"/>
		<path style="fill:#A8D052;" d="M104.698,147.256c-1.548,0.908-3.128,1.908-4.076,3.432s-1.059,3.719,0.221,4.977
			c1.094,1.075,2.799,1.163,4.331,1.088c8.063-0.393,15.964-3.566,22.059-8.859c0.376-0.327,0.775-0.722,0.779-1.22
			c0.004-0.416-0.273-0.778-0.56-1.079c-1.681-1.764-4.127-2.637-6.552-2.872C114.787,142.131,109.858,144.231,104.698,147.256z"/>
		<path style="fill:#A8D052;" d="M128.169,137.535c-0.792,0.438-1.576,1.089-1.704,1.984c-0.106,0.747,0.291,1.499,0.865,1.991
			c0.573,0.491,1.3,0.762,2.024,0.976c2.017,0.596,4.21,0.817,6.213,0.175c1.45-0.465,2.721-1.353,3.968-2.228
			c0.41-0.288,0.868-0.674,0.818-1.173c-0.046-0.464-0.512-0.755-0.932-0.957C135.911,136.617,131.781,135.536,128.169,137.535z"/>
		<path style="fill:#A8D052;" d="M142.548,133.009c-0.316,0.019-0.638,0.048-0.929,0.172c-0.332,0.141-0.6,0.395-0.854,0.651
			c-0.48,0.484-0.966,1.119-0.802,1.78c0.09,0.361,0.36,0.646,0.623,0.909c0.975,0.976,2.023,1.927,3.298,2.454
			c0.619,0.256,1.281,0.406,1.95,0.441c2.391,0.128,3.867-1.882,2.872-4.126C147.762,133.16,144.53,132.89,142.548,133.009z"/>
		<path style="fill:#A8D052;" d="M120.518,133.214c-0.615,0.338-1.181,0.823-1.446,1.473c-0.545,1.335,0.411,2.91,1.714,3.527
			c1.304,0.617,2.823,0.514,4.253,0.328c0.82-0.107,1.658-0.245,2.375-0.657c0.717-0.412,1.297-1.158,1.286-1.985
			c-0.009-0.702-0.44-1.346-0.992-1.781C125.831,132.639,122.649,132.042,120.518,133.214z"/>
	</g>
	<path style="fill:#96BA4A;" d="M165.201,118.197c-1.808-4.82-21.089-4.519-36.453-4.218c-6.791,0.133-11.693,2.62-15.079,5.899
		c1.975,1.39,4.44,2.152,6.75,2.617c3.803,0.766,7.743,0.9,11.61,0.793c6.18-0.171,12.229-1.161,18.331-2.042
		c1.292-0.186,2.788-0.49,4.087-0.197c1.184,0.267,0.883,1.286,0.266,2.042c-1.38,1.69-3.46,2.676-5.47,3.4
		c-2.319,0.836-4.761,1.315-7.192,1.689c-2.362,0.364-4.739,0.604-7.116,0.845c-2.525,0.257-5.031,0.52-7.574,0.49
		c-4.963-0.058-9.904-0.984-14.549-2.737c-1.098-0.414-2.175-0.878-3.236-1.377c-0.936,1.807-1.558,3.61-1.897,5.225
		c0.427,0.404,0.884,0.771,1.432,1.042c3.247,1.604,7.273,1.833,10.827,1.877c7.411,0.091,14.768-1.312,22.056-2.488
		c6.743-1.089,13.419-2.678,19.856-4.979c2.011-0.719,3.986-1.535,5.941-2.396C166.656,121.654,165.848,119.923,165.201,118.197z"/>
	<path style="fill:#96BA4A;" d="M59.375,162.631c1.948,1.049,4.283,1.212,6.453,1.046c4.28-0.327,8.382-1.953,12.085-4.054
		c5.511-3.127,10.31-7.35,14.908-11.67c2.271-2.133,4.598-4.24,6.779-6.465c1.752-1.788,3.261-3.803,4.359-6.058
		c0.572-1.175,1.012-2.378,1.354-3.602c-4.731-1.6-11.242,2.43-19.344,8.964c-9.071,7.315-31.21,7.528-28.609,20.233
		C57.923,161.654,58.579,162.203,59.375,162.631z"/>
	<path style="fill:#96BA4A;" d="M15.731,225.378c2.886,1.962,6.372,3.486,9.935,2.968c2.676-0.389,5.169-1.762,7.424-3.187
		c2.182-1.378,4.243-2.951,6.215-4.613c4.135-3.485,7.765-7.382,10.858-11.828c3.292-4.732,6.082-9.897,7.76-15.43
		c0.773-2.549,1.319-5.203,1.405-7.872c0.078-2.459-0.081-5.052-0.936-7.379c-2.381-6.483-9.472-7.868-15.86-7.003
		c-2.672,6.411-28.891,23.16-33.084,36.639c-1.242,3.993-1.281,7.913-0.725,11.462C10.847,221.446,13.142,223.618,15.731,225.378z"
		/>
	<path style="fill:#96BA4A;" d="M127.139,199.688c0,0-12.335-14.098-1.762-37.006s37.887-14.538,48.46-7.93
		c10.573,6.608,6.168,18.503,7.489,25.111c1.322,6.608,3.084,15.419-1.322,18.062c-4.405,2.643-11.349,13.836-27.209,16.92
		C136.936,217.93,128.901,205.856,127.139,199.688z"/>
	<path style="fill:#96BA4A;" d="M127.478,189.29c0,0-0.804,16.623,13.674,20.913c14.478,4.29,31.637-8.579,27.079-32.173
		c-4.558-23.594-17.427-23.326-24.666-21.717C136.326,157.921,127.21,165.697,127.478,189.29z"/>
	<g>
		<path style="fill:#A8D052;" d="M144.484,163.663c9.829-2.376,16.668-0.326,21.363,5.776
			c-5.689-14.886-16.062-14.509-22.282-13.126c-6.147,1.366-13.645,7.185-15.603,23.356
			C130.594,173.312,135.522,165.83,144.484,163.663z"/>
	</g>
	<g>
		<g>
			<g>
				<path style="fill:#96BA4A;" d="M163.064,194.269c-4.448,8.995-14.473,13.112-22.392,9.197
					c-7.919-3.916-10.733-14.382-6.286-23.377c4.448-8.995,14.473-13.112,22.392-9.197
					C164.697,174.808,167.511,185.274,163.064,194.269z"/>
				<path style="fill:#FBFCF9;" d="M162.079,193.782c-4.142,8.377-13.479,12.212-20.854,8.565
					c-7.375-3.647-9.996-13.394-5.854-21.771c4.142-8.377,13.479-12.212,20.854-8.565
					C163.6,175.658,166.221,185.405,162.079,193.782z"/>
			</g>
		</g>
		<g>
			<path style="fill:#B3B3B3;" d="M156.197,171.978c-7.375-3.647-16.712,0.188-20.854,8.565c-4.142,8.377-1.521,18.124,5.854,21.771
				c7.375,3.647,16.712-0.188,20.854-8.565C166.193,185.372,163.572,175.625,156.197,171.978z M142.168,200.351
				c-6.42-3.175-8.702-11.66-5.096-18.952c3.606-7.293,11.734-10.631,18.154-7.456c6.42,3.175,8.702,11.66,5.096,18.952
				C156.716,200.187,148.588,203.525,142.168,200.351z"/>
		</g>
		<ellipse style="fill:#3498A8;" cx="150.511" cy="185.762" rx="10.785" ry="11.405"/>
		<ellipse style="fill:#34496A;" cx="151.167" cy="185.503" rx="7.485" ry="7.916"/>
		<path style="fill:#FBFCF9;" d="M148.167,183.615c0,2.149-1.648,3.892-3.68,3.892c-2.032,0-3.68-1.742-3.68-3.892
			c0-2.149,1.648-3.892,3.68-3.892C146.519,179.723,148.167,181.466,148.167,183.615z"/>
		<path style="fill:#3498A8;" d="M142.933,189.546c0,0,5.979,10.411,15.347,0.453c1.594-1.961,0.331,7.083-7.972,6.488
			C142.783,195.947,142.933,189.546,142.933,189.546z"/>
	</g>
	<g>
		<path style="fill:#A8D052;" d="M9.741,195.577c0,0-4.406,7.636,1.762,17.328c6.168,9.692,25.845,7.636,37.299-9.986
			c11.454-17.622,8.517-37.006-2.056-32.307C36.468,174.724,9.741,195.577,9.741,195.577z"/>
		<path style="fill:#829B0F;" d="M23.511,219.154c-0.032,0-0.063,0-0.096,0c-5.434-0.027-9.928-2.207-12.331-5.983
			c-6.257-9.832-1.819-17.764-1.774-17.843c0.032-0.055,0.075-0.104,0.125-0.144c1.093-0.853,26.899-20.942,37.126-25.033
			c2.986-1.329,5.654-0.873,7.499,1.287c4.33,5.075,3.418,19.044-4.841,31.751C41.566,214.965,30.941,219.154,23.511,219.154z
			 M10.13,195.904c-0.428,0.829-3.797,7.948,1.793,16.734c2.217,3.485,6.408,5.498,11.497,5.522c0.03,0,0.061,0,0.092,0
			c7.169,0.001,17.437-4.071,24.875-15.513c8.017-12.334,9.016-25.762,4.919-30.564c-1.555-1.824-3.754-2.175-6.356-1.017
			C37.117,175,11.778,194.624,10.13,195.904z"/>
	</g>
	<g>
		<path style="fill:#96BA4A;" d="M46.747,170.612c-10.279,4.112-37.006,24.964-37.006,24.964s-2.689,4.708-0.882,11.411
			c2.255,2.826,5.833,5.263,11.524,5.737c14.854,1.238,25.747-12.874,31.194-23.767c3.961-8.17-2.228,25.252-27.233,27.48
			c-4.65,0.358-8.82-0.922-12.405-2.916c6.605,8.969,25.662,6.629,36.863-10.603C60.257,185.297,57.32,165.913,46.747,170.612z"/>
	</g>
	<g>
		<path style="fill:#FFFDF8;" d="M51.152,180.304c0,0-2.349,18.208-21.144,26.726c-32.412,14.688-25.743-52.815-19.844-68.038
			c3.185-8.219,6.753-3.99,8.975,2.545c5.435,15.983,17.034,25.845,25.552,28.488C50.565,170.906,52.327,173.549,51.152,180.304z"/>
		<path style="fill:#DCBE7B;" d="M21.629,209.605c-3.274,0-6.115-1.127-8.497-3.379C0,193.807,5.023,150.884,9.701,138.812
			c1.278-3.3,2.741-4.848,4.34-4.855c2.669,0.056,4.634,4.673,5.568,7.419c5.313,15.626,16.803,25.559,25.229,28.174
			c2.948,0.436,4.87,1.36,5.973,2.89c1.232,1.708,1.488,4.157,0.831,7.94c-0.081,0.584-2.811,18.664-21.429,27.102
			C27.089,208.898,24.223,209.605,21.629,209.605z M13.994,134.951c-1.132,0-2.295,1.458-3.366,4.221
			c-4.476,11.551-9.418,54.412,3.188,66.333c3.946,3.732,9.328,4.095,15.987,1.072c18.332-8.307,20.834-26.157,20.858-26.336
			c0.001-0.007,0.003-0.015,0.004-0.022c0.6-3.456,0.392-5.742-0.657-7.197c-0.937-1.299-2.65-2.094-5.388-2.505
			c-12.426-3.851-22.146-17.635-25.95-28.82c-1.424-4.192-3.162-6.715-4.647-6.745C14.012,134.951,14.003,134.951,13.994,134.951z"
			/>
	</g>
	<path style="fill:#FFFDF8;" d="M22.762,206.368c-4.675-7.792-8.212-16.278-10.484-25.075c-2.245-8.691-3.265-17.729-2.802-26.701
		c0.351-6.804,1.571-13.595,3.878-20.007c-1.064,0.379-2.147,1.716-3.189,4.406c-5.527,14.261-11.727,74.4,14.157,69.87
		C23.79,208.038,23.266,207.208,22.762,206.368z"/>
	<g>
		<path style="fill:#FFFDF8;" d="M85.681,142.326c0,0-15.135,11.245-22.773,12.426c-9.683,1.497-15.963-18.237-18.44-24.736
			c-10.672-27.99-12.619-63.409,9.035-86.867c7.049-7.636,11.748-7.636,7.049,2.056c-4.699,9.692-8.517,43.467,19.678,71.956
			c12.042,11.16,19.384,13.216,16.741,16.153C94.326,136.25,85.681,142.326,85.681,142.326z"/>
		<path style="fill:#DCBE7B;" d="M61.863,155.33c-8.621,0-14.331-15.547-17.134-23.181c-0.27-0.736-0.512-1.395-0.727-1.956
			c-13.091-34.336-9.677-67.002,9.135-87.381c4.087-4.428,7.46-6.433,9.024-5.367c1.348,0.92,0.957,3.603-1.163,7.977
			c-5.26,10.85-7.633,43.89,19.583,71.389c4.863,4.507,8.959,7.521,11.949,9.722c3.424,2.521,5.311,3.91,5.464,5.405
			c0.061,0.592-0.154,1.151-0.656,1.708c-2.638,2.932-10.942,8.786-11.365,9.083c-0.697,0.518-15.339,11.331-22.988,12.514
			C62.605,155.301,62.231,155.33,61.863,155.33z M61.151,38.152c-1.098,0-3.572,1.313-7.284,5.333
			c-18.55,20.096-21.891,52.378-8.936,86.353c0.215,0.564,0.458,1.228,0.731,1.968c2.722,7.414,8.275,22.528,16.2,22.53
			c0.319,0,0.642-0.025,0.969-0.075c7.43-1.149,22.404-12.223,22.554-12.334c0.004-0.003,0.007-0.005,0.01-0.008
			c0.087-0.061,8.629-6.077,11.205-8.939c0.404-0.449,0.424-0.753,0.405-0.942c-0.107-1.057-2.079-2.508-5.064-4.705
			c-3.009-2.215-7.131-5.249-12.051-9.809C52.288,89.636,54.746,56.036,60.103,44.987c2.084-4.295,2.11-6.306,1.498-6.722
			C61.493,38.192,61.343,38.152,61.151,38.152z"/>
	</g>
	<g>
		<path style="fill:#FFFDF8;" d="M116.425,101.175c0,0-1.566,13.054-0.522,15.926c1.044,2.872,7.049,1.567,26.369,1.567
			s22.192,0.783,21.409-7.049c-0.783-7.833-11.749-52.478-22.453-71.798C130.523,20.5,108.331,3.53,103.371,5.096
			c-4.961,1.567,13.315,19.32,14.882,59.266C118.774,83.682,116.425,101.175,116.425,101.175z"/>
		<path style="fill:#DCBE7B;" d="M122.803,119.461c-4.806,0-6.721-0.41-7.368-2.19c-1.073-2.949,0.432-15.617,0.497-16.155
			c0-0.002,0-0.005,0-0.007c0.025-0.175,2.339-17.678,1.823-36.734c-0.991-25.26-8.752-41.739-12.922-50.592
			c-2.097-4.452-3.252-6.904-2.653-8.273c0.189-0.431,0.539-0.73,1.04-0.889c5.633-1.789,27.998,16.108,38.442,34.957
			c10.734,19.375,21.713,63.99,22.514,71.988c0.246,2.464,0.178,4.36-0.956,5.608c-1.868,2.057-6.341,2.038-16.139,2.001
			c-1.476-0.006-3.077-0.012-4.809-0.012c-5.52,0-9.941,0.107-13.494,0.192C126.409,119.414,124.439,119.461,122.803,119.461z
			 M116.918,101.239c-0.432,3.601-1.371,13.429-0.549,15.693c0.624,1.715,4.068,1.634,12.384,1.431
			c3.558-0.085,7.986-0.192,13.518-0.192c1.734,0,3.335,0.007,4.813,0.012c9.211,0.03,13.83,0.054,15.401-1.675
			c0.768-0.846,0.966-2.203,0.702-4.841c-0.797-7.956-11.716-52.334-22.395-71.606C130.157,20.864,108.245,4.081,103.52,5.57
			c-0.289,0.091-0.382,0.23-0.43,0.34c-0.418,0.955,0.866,3.68,2.642,7.451c4.199,8.916,12.018,25.514,13.016,50.981
			C119.264,83.41,116.96,100.924,116.918,101.239z"/>
	</g>
	<path style="fill:#FFFDF8;" d="M72.275,225.699c0,0,1.991-1.193,8.244-3.183c6.564-2.089,6.794-10.169,3.561-13.401
		C80.848,205.883,68.621,204.899,72.275,225.699z"/>
	<g>
		<path style="fill:#829B0F;" d="M82.362,207.991c-4.358-1.918-12.708-0.409-10.343,16.082c0.724-0.538,2.799-1.96,7.277-4.269
			C84.267,217.242,84.461,211.483,82.362,207.991z"/>
	</g>
	<g>
		<path style="fill:#829B0F;" d="M79.961,207.378c-3.903-0.359-8.672,2.201-8.338,12.37c1.113-0.659,2.553-1.465,4.442-2.439
			C80.22,215.166,81.03,210.796,79.961,207.378z"/>
	</g>
	<path style="fill:#829B0F;" d="M41.641,270.81c0,0,74.977-18.933,94.853-26.652c15.631-8.298,22.771-13.122,24.315-17.947
		c1.737,0.386,1.737,0.386,1.737,0.386s-4.053,11.192-30.683,21.227s-88.856,25.68-88.856,25.68L41.641,270.81z"/>
	<g>
		<g>
			<path style="fill:#FBDEAC;" d="M209.161,101.006c0,0,1.909-13.657,15.272-19.825c13.363-6.168,16.741-0.587,19.384,5.727
				c2.643,6.314,0.441,30.838-13.951,36.125C215.916,107.321,209.161,101.006,209.161,101.006z"/>
			<path style="fill:#D7B580;" d="M229.866,123.53c-0.14,0-0.275-0.059-0.371-0.167c-13.769-15.509-20.605-21.931-20.673-21.994
				c-0.119-0.111-0.176-0.272-0.153-0.431c0.019-0.14,2.101-13.998,15.556-20.207c5.811-2.683,10.215-3.374,13.469-2.108
				c3.518,1.368,5.18,4.749,6.581,8.094c1.664,3.974,1.505,15.201-2.532,24.459c-2.726,6.251-6.774,10.513-11.707,12.325
				C229.982,123.521,229.923,123.53,229.866,123.53z M209.696,100.828c1.201,1.148,7.936,7.689,20.314,21.619
				c4.531-1.782,8.267-5.809,10.823-11.67c3.932-9.017,4.12-19.868,2.527-23.677c-1.318-3.148-2.87-6.325-6.026-7.552
				c-2.983-1.16-7.138-0.479-12.692,2.084C212.669,87.158,210.039,98.972,209.696,100.828z"/>
		</g>
		<path style="fill:#FBDEAC;" d="M220.715,93.873c2.88,1.646,6.349,2.304,9.383,0.679c3.032-1.624,5.088-4.741,6.618-7.721
			c1.104-2.149,1.98-4.372,2.717-6.638c-2.836-2.199-7.22-2.603-14.999,0.988c-4.59,2.119-7.829,5.121-10.103,8.15
			C216.546,90.766,218.636,92.686,220.715,93.873z"/>
		<path style="fill:#E9D3A5;" d="M243.817,86.909c-0.68-1.625-1.413-3.196-2.348-4.536c0.432,6.205-2.659,12.041-6.813,16.581
			c-1.182,1.291-2.482,2.507-3.955,3.461c-1.166,0.755-2.618,1.449-4.046,1.249c-2.916-0.407-5.061-3.326-6.823-5.407
			c-2.094-2.474-4.215-5.027-7.267-6.264c-2.812,4.802-3.405,9.015-3.405,9.015s6.755,6.314,20.706,22.027
			C244.258,117.747,246.461,93.223,243.817,86.909z"/>
		<g>
			<path style="fill:#FBDEAC;" d="M187.503,119.524c0,0-0.369-12.644,16.372-17.343c16.741-4.699,23.789,9.692,25.552,16.447
				c1.762,6.755-0.294,25.258-17.915,29.957C204.464,133.796,201.775,126.143,187.503,119.524z"/>
			<path style="fill:#D7B580;" d="M211.511,149.082c-0.188,0-0.365-0.107-0.449-0.283c-0.537-1.127-1.048-2.212-1.542-3.26
				c-5.934-12.59-9.204-19.526-22.226-25.564c-0.171-0.08-0.282-0.248-0.287-0.437c-0.004-0.13-0.184-13.087,16.735-17.835
				c5.752-1.615,10.894-1.157,15.282,1.36c5.946,3.412,9.522,10.213,10.885,15.439c1.605,6.156,0.225,25.63-18.269,30.563
				C211.596,149.077,211.553,149.082,211.511,149.082z M188.006,119.211c13.103,6.158,16.423,13.199,22.413,25.905
				c0.437,0.93,0.89,1.889,1.362,2.88c17.396-4.911,18.694-23.376,17.164-29.242c-1.312-5.031-4.738-11.569-10.417-14.829
				c-4.148-2.379-9.029-2.807-14.518-1.266c-6.689,1.877-11.575,5.384-14.134,10.142
				C188.291,115.747,188.042,118.35,188.006,119.211z"/>
		</g>
		<path style="fill:#FBDEAC;" d="M200.749,114.659c2.884,1.91,6.911,3.08,10.072,1.13c2.782-1.716,4.231-5.11,5.136-8.109
			c0.493-1.636,0.866-3.318,1.133-5.024c-3.513-1.524-7.867-1.976-13.215-0.475c-5.713,1.604-9.431,4.133-11.853,6.769
			C195.17,110.113,197.88,112.76,200.749,114.659z"/>
		<path style="fill:#E9D3A5;" d="M229.426,118.628c-0.773-2.964-2.564-7.396-5.744-11.042c0.726,6.07-2.48,11.931-6.512,16.354
			c-2.346,2.574-5.476,5.233-9.147,5.307c-0.771,0.015-1.501-0.061-2.167-0.463c-0.558-0.337-1.053-0.766-1.507-1.232
			c-1.186-1.219-2.147-2.66-3.077-4.076c-1.887-2.876-3.623-6.244-6.38-8.401c-1.535-1.202-3.68-1.843-5.538-2.346
			c-1.938,3.698-1.851,6.796-1.851,6.796c14.273,6.619,16.962,14.272,24.008,29.061
			C229.133,143.886,231.188,125.383,229.426,118.628z"/>
	</g>
	<path style="fill:#FBDEAC;" d="M214.409,105.617c-5.558-4.452-16.087-3.74-19.333,3.279c-0.222,0.481,0.381,0.131,0.505-0.093
		c1.545-2.79,4.709-4.111,7.759-4.401c3.522-0.335,6.942,0.761,9.998,2.448C213.846,107.132,214.885,105.999,214.409,105.617z"/>
	<path style="fill:#FBDEAC;" d="M237.998,80.079c-8.362-1.496-17.082,3.086-21.755,9.933c-0.438,0.641,0.501,0.406,0.758,0.063
		c4.678-6.234,12.305-8.885,19.91-8.37C237.488,81.745,238.74,80.212,237.998,80.079z"/>
	<g>
		<path style="fill:#829B0F;" d="M54.131,206.587c-5.31,6.58-10.417,10.782-17.604,15.326c-3.823,2.418-8.255,4.405-12.881,3.569
			c-3.776-0.683-7.148-3.081-9-6.434c-0.08-0.144-0.396,0.184-0.343,0.31c1.483,3.492,4.364,6.222,8.032,7.299
			c4.366,1.282,8.881-0.378,12.691-2.499c8.058-4.486,15.555-11.191,20.592-18.935C56.134,204.431,54.628,205.971,54.131,206.587z"
			/>
		<path style="fill:#829B0F;" d="M22.626,241.59c-1.533-1.415-3.911-4.538-5.379-6.022c-1.446-1.462-2.81-3.048-4.075-4.669
			c-0.087-0.112-0.42,0.246-0.356,0.364c1.01,1.867,2.189,3.564,3.576,5.171c1.389,1.609,2.908,3.097,4.707,4.237
			C21.415,240.871,22.906,241.848,22.626,241.59z"/>
		<path style="fill:#829B0F;" d="M92.925,208.377c-0.254-2.137-0.545-4.275-0.859-6.404c-0.018-0.119-0.303,0.144-0.3,0.24
			c0.061,2.045,0.078,4.084-0.012,6.129c-0.086,1.972-0.203,3.961-0.854,5.84c-1.095,3.162-3.432,5.661-5.529,8.193
			c-0.244,0.295-0.706,1.004-0.304,1.354c0.407,0.354,1.044-0.229,1.298-0.49c2.609-2.674,5.099-5.705,6.217-9.336
			C93.134,212.11,93.144,210.224,92.925,208.377z"/>
		<path style="fill:#829B0F;" d="M104.416,134.984c-6.56,7.208-13.577,13.831-21.18,19.928c-3.748,3.005-7.594,6.089-12.105,7.871
			c-4.048,1.6-9.719,2.409-13.229-0.798c-0.1-0.092-0.397,0.24-0.299,0.344c3.118,3.283,7.761,3.196,11.826,1.963
			c4.652-1.411,8.678-4.313,12.49-7.237c8.312-6.376,16.43-13.441,22.918-21.706C105.267,134.801,104.896,134.456,104.416,134.984z"
			/>
		<path style="fill:#829B0F;" d="M62.759,168.227c-1.934-0.043-4.229-0.055-5.765-1.415c-1.276-1.129-1.948-3.173-1.25-4.785
			c0.127-0.294-0.221-0.058-0.293,0.064c-1.002,1.714-0.912,4.076,0.524,5.53c1.654,1.675,4.215,1.529,6.369,1.322
			C62.564,168.922,63.032,168.233,62.759,168.227z"/>
		<path style="fill:#829B0F;" d="M161.164,126.422c-15.914,5.329-32.306,7.302-49.027,5.838c-0.178-0.016-0.515,0.457-0.326,0.483
			c16.393,2.271,33.713,0.276,49.158-5.658C161.204,126.995,161.633,126.265,161.164,126.422z"/>
		<path style="fill:#829B0F;" d="M172.603,202.473c-5.98,7.217-14.383,12.746-24.1,12.139c-8.19-0.512-16.076-6.023-17.881-14.286
			c-0.023-0.107-0.284,0.135-0.268,0.243c1.429,9.383,9.928,15.358,19.118,15.343c9.599-0.015,18.029-5.733,23.587-13.229
			C173.416,202.202,172.912,202.1,172.603,202.473z"/>
		<path style="fill:#829B0F;" d="M154.711,220.025c-9.052-0.162-18.281-3.476-23.025-11.649c-0.088-0.151-0.409,0.192-0.358,0.324
			c3.571,9.191,14.056,12.132,23.045,11.826C154.557,220.518,154.894,220.028,154.711,220.025z"/>
		<path style="fill:#829B0F;" d="M164.212,168.751c-3.118-3.746-8.269-5.007-12.949-4.429c-8.995,1.112-16.92,7.638-20.808,15.644
			c-0.13,0.268,0.212,0.067,0.28-0.062c4.139-7.942,12.575-14.586,21.822-14.706c4.19-0.054,8.506,1.572,11.033,5.039
			c2.582,3.542,2.753,8.227,2.975,12.435c0.031,0.588,0.998-0.258,0.993-0.653C167.5,177.455,167.276,172.433,164.212,168.751z"/>
		<path style="fill:#829B0F;" d="M150.094,154.221c-10.968,0.1-19.094,9.212-21.829,19.188c-1.91,6.967-1.456,14.264-0.053,21.273
			c0.049,0.245,0.617-0.284,0.584-0.524c-1.471-10.906-1.42-23.465,6.585-32.019c7.066-7.55,19.143-8.245,26.068-0.192
			c3.321,3.861,6.439,8.769,7.949,13.573c0.205,0.652,0.257-0.51,0.142-1.061C167.487,164.581,161.475,154.117,150.094,154.221z"/>
		<path style="fill:#829B0F;" d="M163.022,226.227c-3.057-1.553-6.794-0.205-9.167,1.964c-0.132,0.12-0.46,0.482-0.335,0.687
			c0.134,0.22,0.398,0.023,0.539-0.087c2.216-1.742,5.508-2.801,8.171-1.433c2.05,1.053,3.792,3.857,2.846,6.163
			c-0.198,0.482,0.376,0.128,0.492-0.098C166.921,230.765,165.621,227.548,163.022,226.227z"/>
		<path style="fill:#829B0F;" d="M172.456,225.189c-0.211-0.19-0.77,0.45-0.584,0.672c3.056,3.631,4.055,9.246,1.514,13.422
			c-0.291,0.479,0.212,0.388,0.418,0.072C176.613,235.031,176.418,228.758,172.456,225.189z"/>
		<path style="fill:#829B0F;" d="M181.279,227.179c-0.074-0.154-0.403,0.189-0.358,0.324c2.043,6.04,0.969,12.936-2.499,18.253
			c-3.261,4.999-8.221,8.234-13.39,10.995c-0.48,0.256-1.263,1.826-0.185,1.468C176.975,254.19,187.337,239.884,181.279,227.179z"/>
		<path style="fill:#829B0F;" d="M188.723,238.461c-0.07-0.258-0.622,0.293-0.584,0.524c0.846,5.122-0.643,10.408-4.285,14.141
			c-0.455,0.467-0.207,1.188,0.396,0.6C188.227,249.845,190.19,243.89,188.723,238.461z"/>
		<path style="fill:#829B0F;" d="M110.77,278.72c-3.612,7.516-10.71,12.633-18.768,14.382c-0.438,0.095-1.36,1.405-0.61,1.317
			c4.509-0.528,8.641-2.538,12.16-5.364c3.519-2.826,6.103-6.323,7.741-10.511C111.444,278.158,110.846,278.562,110.77,278.72z"/>
		<path style="fill:#829B0F;" d="M126.721,273.458c-3.369,8.545-9.122,13.201-16.937,16.374c-0.472,0.191-1.296,1.601-0.338,1.316
			c8.696-2.589,15.57-10.449,17.886-19.101C127.499,271.423,126.841,273.153,126.721,273.458z"/>
		<path style="fill:#829B0F;" d="M173.663,194.861c-0.559,3.405-2.921,6.512-5.887,8.221c-0.231,0.133-0.501,0.457-0.522,0.732
			c-0.018,0.233,0.129,0.362,0.368,0.248c3.752-1.797,6.145-5.417,6.528-9.534C174.176,194.257,173.691,194.691,173.663,194.861z"/>
		<path style="fill:#829B0F;" d="M108.857,189.06c-2.58-3.498-3.983-7.725-3.606-12.086c0.017-0.202-0.354,0.104-0.369,0.248
			c-0.461,4.376,0.679,8.98,3.459,12.432C108.496,189.847,109.024,189.287,108.857,189.06z"/>
		<path style="fill:#829B0F;" d="M109.289,200.492c-3.582-2.375-5.396-6.879-4.278-11.054c0.062-0.23-0.263,0.033-0.3,0.137
			c-1.492,4.151,0.198,9.284,3.994,11.589C108.979,201.331,109.536,200.656,109.289,200.492z"/>
		<path style="fill:#829B0F;" d="M86.718,234.391c-3.363,4.097-10.474,4.033-13.799-0.066c-0.1-0.124-0.466,0.257-0.353,0.406
			c3.481,4.601,11.088,4.396,14.466-0.191C87.269,234.219,86.925,234.139,86.718,234.391z"/>
	</g>
	<g>
		<g>
			<path style="fill:#FBDEAC;" d="M69.607,188.154c-0.65-0.246-1.359-0.283-2.054-0.27c-1.401,0.027-2.937,0.328-3.804,1.428
				c-0.205,0.26-0.362,0.554-0.517,0.847c-0.515,0.972-1.027,1.989-1.085,3.087c-0.058,1.098,0.462,2.304,1.485,2.708
				c0.792,0.312,1.685,0.092,2.499-0.157c1.745-0.534,3.536-1.244,4.701-2.649c0.394-0.475,0.711-1.036,0.786-1.648
				C71.784,190.151,70.861,188.628,69.607,188.154z"/>
			<path style="fill:#D7B580;" d="M64.497,196.606c-0.351,0-0.702-0.053-1.048-0.189c-1.325-0.522-1.862-2.023-1.798-3.196
				c0.061-1.167,0.576-2.223,1.142-3.293c0.154-0.292,0.33-0.622,0.567-0.922c0.814-1.034,2.221-1.578,4.183-1.617
				c0.682-0.012,1.477,0.014,2.241,0.302l0,0c1.476,0.559,2.521,2.296,2.327,3.871c-0.079,0.641-0.38,1.282-0.898,1.904
				c-1.271,1.532-3.209,2.278-4.938,2.806C65.721,196.442,65.112,196.606,64.497,196.606z M67.793,188.379
				c-0.078,0-0.155,0.001-0.23,0.003c-1.648,0.033-2.801,0.45-3.422,1.239c-0.181,0.23-0.327,0.506-0.47,0.773
				c-0.532,1.004-0.977,1.914-1.028,2.881c-0.045,0.855,0.343,1.892,1.172,2.219c0.648,0.256,1.461,0.046,2.17-0.171
				c1.589-0.486,3.361-1.161,4.465-2.491c0.395-0.473,0.621-0.942,0.677-1.391c0.136-1.11-0.656-2.428-1.693-2.822
				C68.904,188.419,68.32,188.379,67.793,188.379z"/>
		</g>
		<path style="fill:#FBDEAC;" d="M63.403,190.949c1.156-1.268,2.643-2.294,4.186-3.064c-0.012,0-0.024,0-0.035,0
			c-1.401,0.027-2.937,0.328-3.804,1.428c-0.205,0.26-0.362,0.554-0.517,0.847c-0.376,0.71-0.746,1.445-0.944,2.217
			C62.636,191.853,63.023,191.366,63.403,190.949z"/>
		<path style="fill:#E9D3A5;" d="M69.607,188.154c-0.236-0.089-0.482-0.144-0.731-0.186c0.043,0.846-0.059,1.695-0.401,2.479
			c-0.465,1.068-1.335,1.89-2.361,2.42c-1.174,0.606-2.619,0.939-3.908,0.495c-0.021-0.007-0.037-0.021-0.058-0.028
			c-0.027,1.074,0.488,2.227,1.483,2.619c0.792,0.312,1.685,0.092,2.499-0.157c1.745-0.534,3.536-1.244,4.701-2.649
			c0.394-0.475,0.711-1.036,0.786-1.648C71.784,190.151,70.861,188.628,69.607,188.154z"/>
		<g>
			<path style="fill:#FBDEAC;" d="M58.611,195.441c-0.733,0.094-1.302,0.663-1.803,1.207c-1.02,1.108-2.063,2.396-2.045,3.902
				c0.011,0.903,0.438,1.792,1.135,2.365c0.697,0.573,1.652,0.82,2.54,0.657c1.059-0.195,1.936-0.916,2.718-1.656
				c0.603-0.571,1.205-1.21,1.401-2.016C63.034,197.941,60.634,195.181,58.611,195.441z"/>
			<path style="fill:#D7B580;" d="M57.892,204.118c-0.833,0-1.662-0.288-2.308-0.82c-0.811-0.667-1.304-1.693-1.316-2.743
				c-0.021-1.629,1.034-3.003,2.175-4.244c0.552-0.6,1.215-1.248,2.105-1.364l0,0c1.091-0.146,2.333,0.429,3.315,1.525
				c0.99,1.106,1.441,2.464,1.179,3.543c-0.223,0.915-0.873,1.627-1.542,2.26c-0.842,0.798-1.785,1.566-2.969,1.784
				C58.319,204.1,58.105,204.118,57.892,204.118z M58.674,195.934L58.674,195.934c-0.558,0.072-1.047,0.558-1.499,1.051
				c-0.935,1.016-1.93,2.212-1.914,3.559c0.009,0.761,0.365,1.504,0.954,1.988c0.587,0.483,1.383,0.689,2.135,0.553
				c0.929-0.171,1.735-0.836,2.466-1.529c0.52-0.492,1.091-1.076,1.26-1.773c0.184-0.755-0.191-1.793-0.955-2.646
				C60.372,196.298,59.435,195.835,58.674,195.934z"/>
		</g>
		<path style="fill:#FBDEAC;" d="M55.722,201.236c0.682-1.932,1.797-3.723,3.349-5.07c0.23-0.199,0.477-0.368,0.722-0.541
			c-0.394-0.146-0.793-0.234-1.182-0.184c-0.733,0.094-1.302,0.663-1.803,1.207c-1.02,1.108-2.063,2.396-2.045,3.902
			c0.008,0.668,0.247,1.327,0.651,1.858C55.488,202.01,55.588,201.615,55.722,201.236z"/>
		<path style="fill:#E9D3A5;" d="M60.278,195.836c0.039,0.341,0.055,0.677,0.038,0.983c-0.115,2.04-1.294,4.125-3.069,5.172
			c-0.533,0.315-1.118,0.504-1.717,0.542c0.115,0.135,0.233,0.269,0.371,0.382c0.697,0.573,1.652,0.82,2.54,0.657
			c1.059-0.195,1.936-0.916,2.718-1.656c0.603-0.571,1.205-1.21,1.401-2.016C62.905,198.475,61.724,196.638,60.278,195.836z"/>
		<g>
			<path style="fill:#FBDEAC;" d="M66.884,166.808c-3.748,2.177-7.141,5.62-7.666,9.921c-0.075,0.613-0.084,1.261,0.184,1.817
				c0.509,1.055,1.866,1.438,3.026,1.279c1.161-0.159,2.221-0.723,3.337-1.079c1.991-0.635,4.125-0.6,6.214-0.558
				c3.148,0.063,6.298,0.127,9.441,0.314c2.254,0.135,4.553,0.329,6.74-0.231c1.335-0.342,2.583-0.954,3.795-1.608
				c4.026-2.172,7.76-4.839,11.483-7.497c1.082-0.773,2.214-1.606,2.736-2.828c0.76-1.778-0.047-3.935-1.491-5.221
				c-1.443-1.286-3.387-1.853-5.293-2.173C88.586,157.132,76.17,161.415,66.884,166.808z"/>
			<path style="fill:#D7B580;" d="M61.914,180.356c-1.166,0-2.414-0.465-2.959-1.595c-0.343-0.709-0.303-1.49-0.229-2.092
				c0.476-3.897,3.358-7.649,7.909-10.291l0,0c5.396-3.133,19.405-10.179,32.839-7.925c1.571,0.263,3.853,0.787,5.542,2.291
				c1.745,1.554,2.41,3.934,1.617,5.788c-0.593,1.385-1.875,2.302-2.904,3.038c-3.674,2.624-7.474,5.339-11.536,7.53
				c-1.194,0.644-2.493,1.29-3.907,1.652c-2.106,0.539-4.295,0.403-6.412,0.274l-0.481-0.029c-3.118-0.186-6.298-0.25-9.373-0.312
				c-2.074-0.043-4.167-0.085-6.101,0.534c-0.371,0.118-0.735,0.26-1.1,0.402c-0.736,0.287-1.499,0.583-2.322,0.697
				C62.307,180.343,62.112,180.356,61.914,180.356z M67.134,167.237L67.134,167.237c-4.28,2.485-6.984,5.967-7.422,9.552
				c-0.057,0.466-0.093,1.063,0.138,1.539c0.418,0.869,1.598,1.128,2.511,1.003c0.706-0.097,1.382-0.36,2.097-0.638
				c0.383-0.149,0.767-0.298,1.157-0.423c2.092-0.667,4.37-0.621,6.376-0.581c3.133,0.063,6.324,0.127,9.461,0.314l0.484,0.03
				c2.036,0.125,4.148,0.254,6.104-0.245c1.309-0.335,2.544-0.95,3.682-1.564c4.007-2.162,7.781-4.857,11.43-7.464
				c0.977-0.699,2.085-1.49,2.568-2.62c0.7-1.635-0.156-3.579-1.363-4.655c-1.141-1.015-2.744-1.668-5.046-2.054
				C86.178,157.236,72.436,164.158,67.134,167.237z"/>
		</g>
		<path style="fill:#FBDEAC;" d="M60.268,179.162c-0.345-2.186,0.474-4.337,1.712-6.109c2.755-3.942,7.173-6.406,11.538-8.157
			c5.536-2.22,11.421-3.523,17.353-4.074c4.423-0.411,8.872-0.396,13.3-0.076c-1.377-1.008-3.082-1.519-4.778-1.804
			c-10.807-1.811-23.222,2.471-32.508,7.865c-3.748,2.177-7.141,5.62-7.666,9.921c-0.075,0.613-0.084,1.261,0.184,1.817
			c0.202,0.418,0.539,0.726,0.942,0.941C60.321,179.378,60.285,179.273,60.268,179.162z"/>
		<path style="fill:#E9D3A5;" d="M104.686,161.116c-0.171-0.152-0.368-0.263-0.552-0.396c0.134,0.464,0.203,0.951,0.181,1.461
			c-0.09,2.087-1.53,3.826-3.099,5.065c-2.384,1.883-5.359,3.07-8.263,3.876c-2.926,0.813-5.954,1.111-8.984,1.132
			c-1.698,0.012-3.396-0.056-5.091-0.147c-1.543-0.083-3.001-0.424-4.515-0.711c-1.643-0.311-3.532-0.627-5.185-0.22
			c-1.179,0.29-2.267,1.038-3.306,1.639c-1.037,0.599-2.088,1.226-3.231,1.6c-0.928,0.304-1.895,0.269-2.843,0.082
			c-0.267,0.718-0.483,1.456-0.578,2.233c-0.075,0.613-0.084,1.261,0.184,1.817c0.509,1.055,1.866,1.438,3.027,1.279
			c1.161-0.159,2.221-0.723,3.337-1.079c1.991-0.635,4.125-0.6,6.214-0.558c3.148,0.063,6.298,0.127,9.441,0.314
			c2.254,0.135,4.553,0.329,6.74-0.231c1.335-0.342,2.583-0.954,3.795-1.608c4.026-2.172,7.76-4.839,11.483-7.497
			c1.082-0.773,2.214-1.606,2.736-2.828C106.937,164.559,106.129,162.402,104.686,161.116z"/>
		<g>
			<path style="fill:#FBDEAC;" d="M102.257,145.956c-1.548,0.908-3.128,1.908-4.076,3.432c-0.948,1.524-1.059,3.719,0.221,4.977
				c1.094,1.075,2.799,1.163,4.331,1.088c8.063-0.393,15.964-3.566,22.059-8.859c0.376-0.327,0.775-0.722,0.779-1.22
				c0.004-0.416-0.273-0.778-0.56-1.078c-1.681-1.764-4.127-2.637-6.552-2.872C112.345,140.831,107.417,142.931,102.257,145.956z"/>
			<path style="fill:#D7B580;" d="M101.987,155.969c-1.365,0-2.882-0.218-3.933-1.25c-1.52-1.494-1.287-3.997-0.295-5.593
				c1.003-1.612,2.648-2.662,4.247-3.599c4.712-2.761,9.975-5.227,16.5-4.598c2.829,0.274,5.268,1.347,6.865,3.023
				c0.326,0.343,0.701,0.815,0.697,1.425c-0.008,0.774-0.646,1.326-0.951,1.592c-6.207,5.39-14.148,8.58-22.36,8.98
				C102.51,155.962,102.251,155.969,101.987,155.969z M116.379,141.818c-4.985,0-9.211,1.835-13.87,4.566c0,0.001,0,0.001,0,0.001
				c-1.492,0.874-3.022,1.847-3.906,3.266c-0.788,1.268-1.004,3.227,0.147,4.359c0.978,0.961,2.628,1.008,3.959,0.947
				c7.991-0.39,15.718-3.493,21.757-8.739c0.314-0.273,0.607-0.565,0.609-0.85c0.001-0.256-0.241-0.54-0.423-0.731
				c-1.432-1.503-3.648-2.469-6.241-2.72C117.719,141.851,117.042,141.818,116.379,141.818z M102.258,145.956h0.013H102.258z"/>
		</g>
		<path style="fill:#FBDEAC;" d="M98.927,152.536c1.638-2.79,4.286-4.779,7.056-6.355c3.136-1.785,6.54-3.309,10.01-4.309
			c0.636-0.183,1.28-0.327,1.923-0.472c-5.86-0.418-10.655,1.623-15.658,4.557c-1.548,0.908-3.128,1.908-4.076,3.432
			c-0.89,1.431-1.026,3.443,0.017,4.726C98.389,153.562,98.639,153.028,98.927,152.536z"/>
		<path style="fill:#E9D3A5;" d="M125.012,144.295c-1.681-1.764-4.127-2.637-6.552-2.872c-0.156-0.015-0.303-0.009-0.458-0.02
			c1.363,1.267,1.78,3.225,0.733,5.044c-1.487,2.584-4.805,3.991-7.44,5.074c-3.037,1.248-6.148,2.421-9.384,3.036
			c-0.893,0.17-1.844,0.288-2.8,0.321c1.049,0.581,2.389,0.636,3.622,0.576c8.063-0.393,15.964-3.566,22.059-8.859
			c0.376-0.327,0.775-0.722,0.779-1.22C125.575,144.958,125.299,144.596,125.012,144.295z"/>
		<g>
			<path style="fill:#FBDEAC;" d="M125.727,136.235c-0.792,0.438-1.576,1.089-1.704,1.984c-0.106,0.747,0.291,1.499,0.865,1.99
				c0.573,0.491,1.3,0.762,2.024,0.976c2.017,0.596,4.21,0.817,6.213,0.175c1.45-0.465,2.721-1.353,3.968-2.228
				c0.41-0.288,0.868-0.674,0.818-1.173c-0.046-0.464-0.512-0.755-0.932-0.957C133.47,135.317,129.34,134.236,125.727,136.235z"/>
			<path style="fill:#D7B580;" d="M130.509,142.248c-1.168,0-2.417-0.195-3.738-0.586c-0.718-0.212-1.542-0.506-2.207-1.075
				c-0.758-0.649-1.154-1.583-1.032-2.437c0.131-0.914,0.788-1.704,1.955-2.349l0,0c3.171-1.754,7-1.505,11.707,0.755
				c0.309,0.149,1.129,0.543,1.211,1.355c0.085,0.847-0.693,1.395-1.026,1.629c-1.264,0.887-2.569,1.803-4.102,2.294
				C132.415,142.11,131.491,142.248,130.509,142.248z M130.05,135.645c-1.494,0-2.849,0.342-4.082,1.024l0,0
				c-0.606,0.334-1.348,0.887-1.453,1.62c-0.088,0.622,0.301,1.205,0.696,1.543c0.521,0.447,1.224,0.694,1.842,0.876
				c2.237,0.662,4.227,0.721,5.92,0.178c1.388-0.446,2.632-1.318,3.833-2.162c0.158-0.11,0.637-0.447,0.609-0.716
				c-0.017-0.171-0.237-0.359-0.653-0.559C134.257,136.246,132.032,135.645,130.05,135.645z M125.727,136.235h0.013H125.727z"/>
		</g>
		<path style="fill:#FBDEAC;" d="M126.757,137.671c1.856-1.409,4.184-1.983,6.51-2.057c-2.52-0.663-5.142-0.706-7.539,0.62
			c-0.792,0.438-1.576,1.089-1.704,1.984c-0.087,0.611,0.171,1.217,0.579,1.689C125.153,139.033,125.967,138.271,126.757,137.671z"
			/>
		<path style="fill:#E9D3A5;" d="M136.979,137.003c-0.529-0.254-1.076-0.487-1.63-0.705c-0.564,2.415-3.88,3.419-6.133,3.783
			c-1.395,0.226-3.258,0.25-4.738-0.315c0.121,0.163,0.258,0.314,0.411,0.444c0.573,0.491,1.3,0.762,2.024,0.976
			c2.017,0.596,4.21,0.817,6.213,0.175c1.45-0.465,2.721-1.353,3.968-2.228c0.41-0.288,0.868-0.674,0.818-1.173
			C137.864,137.496,137.399,137.205,136.979,137.003z"/>
		<g>
			<path style="fill:#FBDEAC;" d="M140.106,131.709c-0.316,0.019-0.638,0.048-0.929,0.172c-0.332,0.141-0.6,0.395-0.854,0.651
				c-0.48,0.485-0.966,1.119-0.802,1.78c0.09,0.361,0.36,0.645,0.623,0.909c0.975,0.976,2.023,1.927,3.298,2.454
				c0.619,0.256,1.281,0.406,1.95,0.441c2.391,0.128,3.867-1.882,2.872-4.126C145.32,131.86,142.089,131.59,140.106,131.709z"/>
			<path style="fill:#D7B580;" d="M143.612,138.619c-0.081,0-0.163-0.002-0.246-0.007c-0.727-0.039-1.439-0.2-2.113-0.478
				c-1.414-0.585-2.528-1.63-3.461-2.563c-0.33-0.331-0.635-0.668-0.753-1.141c-0.261-1.043,0.635-1.95,0.93-2.248
				c0.285-0.287,0.598-0.582,1.014-0.759c0.366-0.156,0.756-0.19,1.092-0.21l0,0c1.615-0.096,5.483-0.039,6.643,2.576
				c0.537,1.21,0.467,2.453-0.193,3.409C145.899,138.109,144.846,138.619,143.612,138.619z M140.886,132.184
				c-0.307,0-0.565,0.01-0.75,0.022l0,0c-0.265,0.015-0.542,0.039-0.763,0.133c-0.251,0.107-0.472,0.318-0.696,0.543
				c-0.537,0.543-0.757,0.972-0.673,1.309c0.057,0.228,0.256,0.442,0.493,0.679c0.864,0.865,1.891,1.832,3.137,2.346
				c0.569,0.236,1.171,0.371,1.785,0.404c1.01,0.055,1.82-0.307,2.29-0.987c0.458-0.665,0.495-1.555,0.102-2.442
				C145.036,132.443,142.388,132.184,140.886,132.184z M140.106,131.709h0.013H140.106z"/>
		</g>
		<path style="fill:#FBDEAC;" d="M137.626,134.519c0.177-0.184,0.358-0.361,0.539-0.523c1.097-0.98,2.41-1.749,3.906-1.838
			c1.006-0.06,1.982,0.128,2.921,0.455c-1.402-0.862-3.461-0.99-4.886-0.904c-0.316,0.019-0.638,0.048-0.929,0.172
			c-0.332,0.141-0.6,0.395-0.854,0.651c-0.48,0.485-0.966,1.119-0.802,1.78C137.541,134.388,137.592,134.449,137.626,134.519z"/>
		<path style="fill:#E9D3A5;" d="M146.265,133.99c-0.056-0.128-0.145-0.228-0.217-0.342c-0.002,0.009-0.001,0.017-0.002,0.026
			c-0.183,1.002-0.875,1.79-1.814,2.168c-1.274,0.512-2.844,0.294-4.028-0.343c-1.001-0.538-1.782-1.365-2.424-2.29
			c-0.217,0.344-0.354,0.716-0.258,1.103c0.09,0.361,0.36,0.645,0.623,0.909c0.975,0.976,2.023,1.928,3.298,2.455
			c0.619,0.256,1.281,0.406,1.95,0.441C145.784,138.244,147.26,136.235,146.265,133.99z"/>
		<g>
			<path style="fill:#FBDEAC;" d="M118.076,131.914c-0.615,0.338-1.181,0.823-1.446,1.473c-0.545,1.335,0.411,2.91,1.714,3.527
				c1.304,0.617,2.823,0.515,4.253,0.328c0.82-0.107,1.658-0.245,2.375-0.657c0.717-0.412,1.297-1.158,1.286-1.985
				c-0.009-0.702-0.44-1.346-0.992-1.781C123.39,131.339,120.208,130.742,118.076,131.914z"/>
			<path style="fill:#D7B580;" d="M120.749,137.88c-0.904,0-1.794-0.129-2.616-0.518c-1.483-0.702-2.625-2.542-1.961-4.165
				c0.277-0.678,0.853-1.272,1.665-1.72l0,0c2.413-1.323,5.826-0.556,7.738,0.95c0.74,0.583,1.171,1.371,1.181,2.164
				c0.012,0.942-0.577,1.871-1.536,2.422c-0.799,0.461-1.703,0.607-2.558,0.719C122.031,137.816,121.387,137.88,120.749,137.88z
				 M118.315,132.349c-0.426,0.235-0.984,0.638-1.224,1.225c-0.444,1.085,0.417,2.394,1.466,2.891
				c1.229,0.581,2.697,0.452,3.976,0.283c0.758-0.098,1.55-0.225,2.192-0.595c0.638-0.366,1.045-0.974,1.038-1.547
				c-0.007-0.484-0.307-1.007-0.802-1.397C123.339,131.931,120.338,131.238,118.315,132.349L118.315,132.349z"/>
		</g>
		<path style="fill:#FBDEAC;" d="M117.649,133.105c1.505-0.943,3.308-1.372,5.062-1.513c0.021-0.002,0.044-0.001,0.066-0.003
			c-1.591-0.448-3.355-0.416-4.701,0.324c-0.615,0.338-1.181,0.824-1.446,1.473c-0.094,0.231-0.129,0.469-0.14,0.709
			C116.82,133.732,117.189,133.393,117.649,133.105z"/>
		<path style="fill:#E9D3A5;" d="M125.267,132.818c-0.229-0.181-0.479-0.348-0.744-0.501c0.006,0.069,0.019,0.137,0.015,0.207
			c-0.027,0.545-0.338,1.042-0.719,1.415c-0.776,0.757-1.915,1.137-2.969,1.283c-1.172,0.162-2.439-0.086-3.502-0.592
			c-0.315-0.15-0.599-0.333-0.857-0.542c-0.054,1.146,0.773,2.315,1.854,2.827c1.304,0.617,2.823,0.515,4.253,0.328
			c0.82-0.107,1.658-0.245,2.375-0.657c0.717-0.412,1.297-1.158,1.286-1.985C126.249,133.897,125.818,133.253,125.267,132.818z"/>
		<g>
			<path style="fill:#FBDEAC;" d="M208.989,157.745c0.245,2.144,0.28,4.402-0.63,6.359c-0.439,0.943-1.107,1.803-2.004,2.329
				c-1.986,1.166-4.672,0.399-6.296-1.233c-1.624-1.632-2.389-3.923-2.892-6.17c-0.503-2.247-0.806-4.565-1.731-6.673
				c-0.683-1.556-1.684-2.95-2.463-4.46c-1.213-2.354-1.874-5.069-1.406-7.676c0.373-2.077,1.54-4.079,3.305-5.273
				c2.084-1.41,3.683,1.2,5.067,2.747c3.155,3.527,5.612,7.676,7.202,12.132C208.053,152.385,208.68,155.046,208.989,157.745z"/>
			<path style="fill:#D7B580;" d="M204.205,167.501c-1.687,0-3.373-0.818-4.498-1.95c-1.816-1.827-2.571-4.386-3.025-6.412
				c-0.123-0.551-0.234-1.106-0.346-1.661c-0.334-1.659-0.678-3.375-1.357-4.921c-0.387-0.884-0.898-1.741-1.391-2.57
				c-0.366-0.614-0.731-1.228-1.057-1.862c-0.978-1.895-2.023-4.821-1.454-7.991c0.411-2.292,1.725-4.385,3.515-5.596
				c2.144-1.452,3.851,0.598,5.095,2.096c0.212,0.256,0.419,0.505,0.621,0.73c3.17,3.542,5.694,7.794,7.301,12.296
				c0.933,2.617,1.564,5.319,1.873,8.028h0.001c0.221,1.934,0.345,4.434-0.674,6.625c-0.525,1.129-1.286,2.01-2.202,2.549
				C205.848,167.307,205.027,167.501,204.205,167.501z M196.075,135.044c-0.299,0-0.604,0.099-0.926,0.316
				c-1.572,1.064-2.729,2.914-3.093,4.949c-0.52,2.895,0.452,5.601,1.358,7.36c0.318,0.616,0.673,1.212,1.029,1.809
				c0.508,0.855,1.035,1.739,1.448,2.679c0.721,1.644,1.076,3.414,1.421,5.125c0.11,0.548,0.22,1.096,0.342,1.639
				c0.424,1.895,1.122,4.282,2.758,5.929c1.37,1.376,3.831,2.248,5.694,1.155c0.937-0.551,1.498-1.452,1.805-2.111
				c0.913-1.966,0.793-4.289,0.586-6.093l0,0c-0.301-2.634-0.915-5.26-1.823-7.806c-1.563-4.382-4.02-8.52-7.104-11.968
				c-0.21-0.234-0.424-0.492-0.646-0.757C197.844,135.969,196.989,135.044,196.075,135.044z"/>
		</g>
		<path style="fill:#FBDEAC;" d="M198.934,138.368c4.566,5.573,7.021,12.518,8.711,19.433c0.415,1.7,0.786,3.409,1.136,5.124
			c0.458-1.657,0.406-3.454,0.209-5.18c-0.309-2.699-0.936-5.359-1.849-7.917c-1.59-4.456-4.047-8.605-7.202-12.132
			c-1.289-1.44-2.765-3.799-4.644-2.979C196.61,135.827,197.843,137.037,198.934,138.368z"/>
		<path style="fill:#E9D3A5;" d="M207.316,162.948c-1.558-0.695-3.102-1.661-4.331-2.852c-2.733-2.648-3.596-6.933-4.012-10.564
			c-0.373-3.258-0.105-7.113,1.503-10.037c0.122-0.222,0.27-0.446,0.429-0.664c-0.316-0.384-0.635-0.765-0.966-1.135
			c-1.384-1.547-2.983-4.156-5.067-2.747c-1.764,1.193-2.931,3.195-3.305,5.273c-0.468,2.607,0.193,5.322,1.406,7.676
			c0.778,1.51,1.78,2.904,2.463,4.46c0.925,2.109,1.228,4.426,1.731,6.673c0.503,2.247,1.268,4.538,2.892,6.17
			c1.624,1.632,4.31,2.399,6.296,1.233c0.897-0.527,1.566-1.386,2.004-2.33c0.1-0.214,0.184-0.434,0.262-0.655
			C208.17,163.304,207.73,163.133,207.316,162.948z"/>
		<g>
			<path style="fill:#FBDEAC;" d="M203.909,172.628c0.126,2.211-0.18,4.769-2.008,6.02c-1.067,0.73-2.428,0.841-3.72,0.902
				c-0.592,0.028-1.234,0.036-1.714-0.312c-0.488-0.355-0.677-0.983-0.828-1.567c-0.313-1.212-0.597-2.432-0.851-3.657
				c-0.775-3.74-1.232-7.802,0.44-11.236c0.525-1.079,1.471-2.172,2.668-2.084c0.849,0.063,1.53,0.707,2.089,1.35
				C202.728,165.201,203.673,168.458,203.909,172.628z"/>
			<path style="fill:#D7B580;" d="M197.758,180.058c-0.555,0-1.109-0.075-1.582-0.418c-0.616-0.447-0.847-1.187-1.017-1.846
				c-0.312-1.201-0.6-2.44-0.856-3.68c-0.759-3.666-1.298-7.907,0.479-11.554c0.762-1.567,1.961-2.442,3.152-2.362
				c1.05,0.078,1.849,0.853,2.427,1.52c2.604,2.997,3.776,6.15,4.044,10.882c0,0,0,0,0,0.001c0.18,3.153-0.569,5.326-2.223,6.458
				c-1.161,0.793-2.6,0.923-3.977,0.988C198.057,180.053,197.908,180.058,197.758,180.058z M197.766,161.185
				c-0.891,0-1.66,0.922-2.092,1.809c-1.644,3.379-1.124,7.416-0.398,10.918c0.253,1.225,0.538,2.447,0.846,3.633
				c0.132,0.515,0.29,1.038,0.638,1.29c0.339,0.247,0.855,0.243,1.398,0.217c1.285-0.061,2.516-0.168,3.462-0.816
				c1.347-0.922,1.951-2.8,1.793-5.581l0,0c-0.255-4.493-1.357-7.473-3.804-10.288c-0.453-0.523-1.062-1.13-1.749-1.181
				C197.828,161.186,197.797,161.185,197.766,161.185z"/>
		</g>
		<path style="fill:#FBDEAC;" d="M199.739,163.124c2.407,4.098,3.591,8.981,3.549,13.818c0.592-1.28,0.704-2.867,0.622-4.314
			c-0.237-4.17-1.181-7.427-3.924-10.585c-0.538-0.62-1.194-1.229-2.001-1.329C198.637,161.462,199.232,162.26,199.739,163.124z"/>
		<path style="fill:#E9D3A5;" d="M199.157,168.279c-0.184-1.632,0.348-3.326,1.641-4.399c0.121-0.1,0.254-0.181,0.387-0.261
			c-0.359-0.53-0.747-1.056-1.199-1.577c-0.558-0.643-1.24-1.287-2.089-1.35c-1.197-0.088-2.143,1.005-2.668,2.084
			c-1.671,3.434-1.214,7.497-0.44,11.236c0.254,1.226,0.538,2.445,0.851,3.657c0.151,0.584,0.34,1.212,0.828,1.567
			c0.479,0.348,1.122,0.34,1.714,0.312c1.292-0.061,2.652-0.172,3.72-0.902c0.955-0.654,1.489-1.667,1.768-2.799
			C201.491,173.878,199.487,171.203,199.157,168.279z"/>
		<g>
			<path style="fill:#FBDEAC;" d="M191.706,186.396c0.044,0.65,0.005,1.334-0.317,1.901c-0.65,1.144-2.153,1.409-3.462,1.551
				c-0.746,0.081-1.554,0.15-2.197-0.238c-0.543-0.328-0.861-0.923-1.113-1.506c-0.761-1.759-1.156-3.675-1.154-5.592
				c0.001-0.918,0.104-1.872,0.579-2.658c0.476-0.786,1.407-1.355,2.305-1.163c1.168,0.25,2.667,1.994,3.403,2.88
				C190.876,182.928,191.586,184.635,191.706,186.396z"/>
			<path style="fill:#D7B580;" d="M187.02,190.411c-0.514,0-1.06-0.08-1.546-0.374c-0.67-0.406-1.04-1.105-1.312-1.734
				c-0.785-1.814-1.198-3.816-1.195-5.79c0-0.789,0.067-1.951,0.649-2.914c0.631-1.042,1.801-1.614,2.835-1.392
				c1.256,0.269,2.703,1.869,3.682,3.049c1.208,1.457,1.943,3.271,2.069,5.108l0,0c0.039,0.579,0.043,1.436-0.38,2.18
				c-0.735,1.295-2.28,1.63-3.841,1.8C187.695,190.374,187.365,190.411,187.02,190.411z M185.988,179.151
				c-0.617,0-1.212,0.453-1.521,0.961c-0.349,0.579-0.506,1.32-0.506,2.4c-0.003,1.84,0.383,3.705,1.113,5.395
				c0.211,0.486,0.484,1.017,0.915,1.278c0.486,0.294,1.142,0.248,1.885,0.169c1.299-0.142,2.571-0.397,3.084-1.303
				c0.221-0.389,0.301-0.905,0.254-1.622c-0.111-1.63-0.766-3.242-1.842-4.54c-1.368-1.648-2.419-2.56-3.124-2.712
				C186.159,179.16,186.073,179.151,185.988,179.151z"/>
		</g>
		<path style="fill:#FBDEAC;" d="M184.806,185.184c-0.393-1.725-0.686-3.533-0.755-5.339c-0.002,0.004-0.006,0.006-0.008,0.01
			c-0.476,0.786-0.578,1.74-0.579,2.658c-0.002,1.917,0.394,3.833,1.154,5.592c0.252,0.583,0.57,1.178,1.113,1.506
			c0.148,0.09,0.307,0.15,0.471,0.196C185.611,188.297,185.158,186.73,184.806,185.184z"/>
		<path style="fill:#E9D3A5;" d="M191.706,186.396c-0.12-1.761-0.83-3.468-1.955-4.824c-0.736-0.887-2.235-2.63-3.403-2.88
			c-0.898-0.193-1.83,0.377-2.305,1.163c-0.196,0.325-0.318,0.682-0.406,1.05c0.196,0.037,0.393,0.095,0.59,0.186
			c0.562,0.259,1.03,0.723,1.447,1.171c0.473,0.508,0.906,1.052,1.346,1.588c0.945,1.149,1.572,2.463,1.161,3.968
			c-0.264,0.965-0.874,1.639-1.689,2.044c0.466,0.073,0.962,0.04,1.437-0.012c1.308-0.143,2.812-0.407,3.462-1.551
			C191.711,187.73,191.75,187.047,191.706,186.396z"/>
		<g>
			<path style="fill:#FBDEAC;" d="M198.917,179.445c-0.968,2.443-3.415,4.23-6.037,4.407c-0.639,0.043-1.296-0.005-1.891-0.242
				c-1.082-0.431-1.826-1.421-2.473-2.39c-1.319-1.974-2.518-4.235-2.266-6.595c0.251-2.347,1.954-4.361,4.03-5.485
				c0.895-0.484,1.906-0.835,2.918-0.726C197.51,168.881,200.355,175.812,198.917,179.445z"/>
			<path style="fill:#D7B580;" d="M192.464,184.363c-0.622,0-1.169-0.096-1.66-0.291c-1.233-0.492-2.041-1.587-2.703-2.575
				c-1.239-1.855-2.625-4.318-2.347-6.925c0.248-2.322,1.891-4.571,4.287-5.868c1.155-0.625,2.237-0.887,3.208-0.783
				c1.86,0.202,3.593,1.488,4.881,3.622c1.581,2.62,2.093,5.945,1.246,8.085l0,0c-1.04,2.633-3.639,4.529-6.465,4.72
				C192.76,184.358,192.611,184.363,192.464,184.363z M192.825,168.891c-0.692,0-1.467,0.23-2.309,0.686
				c-2.113,1.144-3.559,3.098-3.772,5.101c-0.245,2.289,1.039,4.551,2.184,6.267c0.578,0.863,1.277,1.817,2.245,2.204
				c0.466,0.184,1.018,0.256,1.674,0.208c2.413-0.163,4.72-1.847,5.608-4.094c0-0.001,0-0.001,0-0.001
				c0.741-1.87,0.259-4.833-1.173-7.206c-1.124-1.862-2.593-2.98-4.136-3.147C193.04,168.897,192.934,168.891,192.825,168.891z"/>
		</g>
		<path style="fill:#FBDEAC;" d="M188.454,175.921c-0.139-2.127,0.334-4.232,1.499-6.031c0.201-0.31,0.438-0.611,0.668-0.915
			c-0.114,0.055-0.231,0.105-0.341,0.165c-2.076,1.123-3.779,3.138-4.03,5.484c-0.253,2.36,0.947,4.622,2.266,6.595
			c0.647,0.968,1.391,1.958,2.473,2.39c0.231,0.092,0.477,0.135,0.722,0.176C189.939,181.494,188.644,178.832,188.454,175.921z"/>
		<path style="fill:#E9D3A5;" d="M193.198,168.415c-1.012-0.109-2.023,0.241-2.918,0.726c-0.666,0.36-1.285,0.82-1.838,1.346
			c0.54,0.001,1.064,0.036,1.532,0.104c1.503,0.218,2.993,0.788,4.133,1.812c2.012,1.808,2.866,5.739,0.803,7.8
			c-1.656,1.655-4.042,1.388-6.034,0.571c-0.324-0.133-0.628-0.308-0.94-0.465c0.188,0.309,0.381,0.614,0.579,0.911
			c0.647,0.968,1.391,1.958,2.473,2.39c0.595,0.237,1.252,0.285,1.891,0.242c2.622-0.177,5.069-1.964,6.037-4.407
			C200.355,175.812,197.51,168.881,193.198,168.415z"/>
	</g>
	<g>
		<path style="fill:#FBDEAC;" d="M182.261,158.234c0.913,1.71,2.129,3.235,3.26,4.808c1.881,2.617,3.853,5.616,6.993,6.34
			c0.616,0.142,1.276,0.183,1.869-0.035c1.141-0.419,1.741-1.652,2.132-2.803c1.607-4.731,1.558-10.006-0.136-14.706
			c-1.43-3.967-4.854-9.501-8.845-11.375c-4.794-2.252-6.958,6.427-7.095,9.559C180.316,152.855,180.922,155.728,182.261,158.234z"
			/>
		<path style="fill:#D7B580;" d="M193.464,169.996c-0.332,0-0.687-0.043-1.062-0.129c-3.131-0.722-5.153-3.552-6.937-6.049
			l-0.348-0.486c-0.245-0.34-0.492-0.677-0.74-1.015c-0.897-1.219-1.823-2.479-2.555-3.849c-1.36-2.546-2.009-5.474-1.879-8.468
			c0.104-2.351,1.318-8.103,4.258-9.882c1.096-0.662,2.287-0.696,3.545-0.105c4.052,1.903,7.558,7.377,9.102,11.656
			c1.741,4.833,1.79,10.173,0.138,15.035c-0.37,1.087-1.023,2.593-2.432,3.11C194.224,169.936,193.86,169.996,193.464,169.996z
			 M186.016,140.59c-0.451,0-0.882,0.126-1.3,0.379c-2.426,1.467-3.677,6.719-3.779,9.075c-0.124,2.816,0.485,5.568,1.762,7.956l0,0
			c0.699,1.307,1.603,2.538,2.477,3.729c0.251,0.34,0.501,0.681,0.748,1.024l0.349,0.488c1.763,2.468,3.587,5.021,6.351,5.659
			c0.63,0.144,1.163,0.138,1.586-0.018c0.769-0.282,1.351-1.076,1.833-2.497c1.581-4.65,1.534-9.755-0.131-14.378
			c-1.524-4.223-4.963-9.391-8.589-11.094C186.868,140.697,186.433,140.59,186.016,140.59z"/>
	</g>
	<path style="fill:#FBDEAC;" d="M185.036,157.447c-1.315-2.824-2.342-5.93-3.094-8.948c-0.251-1.008-0.456-2.061-0.574-3.12
		c-0.575,1.756-0.88,3.541-0.928,4.642c-0.124,2.833,0.482,5.706,1.821,8.212c0.913,1.71,2.129,3.235,3.261,4.808
		c1.881,2.617,3.853,5.616,6.993,6.34c0.616,0.142,1.276,0.183,1.869-0.035c0.836-0.307,1.38-1.052,1.765-1.88
		C191.149,166.244,187.166,162.02,185.036,157.447z"/>
	<path style="fill:#E9D3A5;" d="M196.38,151.838c-1.43-3.967-4.853-9.5-8.845-11.375c-4.794-2.252-6.958,6.427-7.095,9.559
		c-0.067,1.518,0.094,3.043,0.447,4.522c0.03-0.03,0.057-0.063,0.087-0.093c0.803-0.784,1.764-1.367,2.552-2.164
		c2.241-2.266,5.125-6.503,8.606-3.572c2.628,2.212,3.508,6.382,3.788,9.633c0.318,3.686-0.838,7.557-3.805,9.943
		c-0.29,0.233-0.606,0.422-0.921,0.614c0.419,0.2,0.853,0.371,1.32,0.479c0.616,0.142,1.276,0.183,1.869-0.035
		c1.141-0.419,1.741-1.652,2.132-2.803C198.123,161.814,198.074,156.538,196.38,151.838z"/>
	<g>
		<path style="fill:#FBDEAC;" d="M177.689,134.971c-0.943-0.948-1.631-2.235-1.561-3.571c0.098-1.887,1.66-3.403,3.361-4.227
			c1.701-0.823,3.599-1.152,5.346-1.874c1.073-0.444,2.116-1.042,3.272-1.146c2.002-0.18,3.847,1.182,5.046,2.796
			c1.563,2.103,2.365,4.668,2.991,7.213c0.475,1.932,0.865,3.884,1.188,5.847c0.29,1.764,0.456,3.79-0.73,5.129
			c-1.467,1.656-4.234,1.288-6.078,0.065c-1.844-1.224-3.177-3.087-4.956-4.402c-1.421-1.049-2.758-2.076-4.117-3.188
			C180.255,136.636,178.798,136.087,177.689,134.971z"/>
		<path style="fill:#D7B580;" d="M193.881,146.752c-1.264,0-2.586-0.442-3.632-1.135c-1.03-0.684-1.904-1.556-2.749-2.4
			c-0.705-0.702-1.432-1.429-2.228-2.016c-1.56-1.153-2.875-2.171-4.137-3.203c-0.486-0.398-1.02-0.721-1.582-1.063
			c-0.758-0.459-1.541-0.935-2.216-1.613l0,0c-1.154-1.161-1.776-2.6-1.705-3.947c0.096-1.854,1.457-3.591,3.641-4.647
			c0.985-0.477,2.031-0.794,3.044-1.1c0.776-0.235,1.578-0.477,2.327-0.787c0.251-0.104,0.499-0.215,0.748-0.327
			c0.838-0.377,1.705-0.768,2.67-0.854c1.897-0.179,3.967,0.946,5.489,2.994c1.651,2.222,2.454,4.865,3.075,7.391
			c0.454,1.849,0.856,3.829,1.195,5.885c0.313,1.911,0.458,4.063-0.849,5.538C196.171,146.374,195.051,146.752,193.881,146.752z
			 M178.041,134.62c0.59,0.593,1.289,1.016,2.027,1.465c0.568,0.344,1.155,0.701,1.696,1.143c1.25,1.021,2.553,2.03,4.099,3.173
			c0.855,0.632,1.609,1.385,2.339,2.113c0.849,0.847,1.65,1.646,2.597,2.275c1.688,1.118,4.179,1.432,5.432,0.019
			c1.03-1.164,0.886-3.038,0.611-4.719c-0.334-2.03-0.731-3.985-1.18-5.809c-0.596-2.424-1.361-4.955-2.907-7.035
			c-1.313-1.767-3.013-2.743-4.604-2.597c-0.798,0.072-1.551,0.411-2.349,0.77c-0.259,0.117-0.516,0.233-0.778,0.34
			c-0.793,0.328-1.62,0.578-2.419,0.82c-1.021,0.309-1.985,0.6-2.899,1.043c-1.43,0.692-2.99,2.054-3.082,3.805
			C176.567,132.494,177.085,133.658,178.041,134.62L178.041,134.62z"/>
	</g>
	<path style="fill:#FBDEAC;" d="M177.122,132.324c3.212-5.172,9.797-5.199,15.137-6.014c0.105-0.016,0.209-0.04,0.314-0.056
		c-1.175-1.286-2.761-2.254-4.466-2.1c-1.157,0.104-2.199,0.703-3.272,1.146c-1.746,0.722-3.645,1.051-5.346,1.874
		c-1.701,0.823-3.263,2.339-3.361,4.227c-0.037,0.704,0.145,1.39,0.456,2.025C176.73,133.051,176.9,132.682,177.122,132.324z"/>
	<path style="fill:#E9D3A5;" d="M197.331,140.009c-0.323-1.963-0.712-3.915-1.187-5.847c-0.626-2.545-1.428-5.109-2.991-7.213
		c-0.959-1.291-2.334-2.406-3.869-2.714c1.682,3.397,3.357,6.851,3.964,10.595c0.286,1.761,0.489,4.328-0.692,5.835
		c-0.906,1.156-2.364,0.709-3.474,0.131c-1.457-0.759-2.695-1.859-4.002-2.838c-1.598-1.196-3.364-2.151-5.036-3.235
		c-1.352-0.877-2.789-1.921-3.901-3.16c-0.008,1.276,0.643,2.498,1.548,3.407c1.11,1.116,2.566,1.665,3.761,2.642
		c1.36,1.112,2.697,2.138,4.117,3.188c1.78,1.315,3.113,3.178,4.956,4.402c1.844,1.224,4.611,1.591,6.078-0.065
		C197.787,143.799,197.621,141.774,197.331,140.009z"/>
	<g>
		<path style="fill:#FBDEAC;" d="M180.071,136.72c-2.441-1.23-5.272-1.395-8.005-1.361c-0.671,0.008-1.362,0.032-1.976,0.305
			c-0.588,0.261-1.062,0.737-1.415,1.275c-0.883,1.347-1.044,3.067-0.776,4.655c0.268,1.588,0.928,3.08,1.588,4.549
			c0.389,0.865,0.794,1.749,1.462,2.421c0.658,0.663,1.523,1.072,2.37,1.467c1.641,0.767,3.452,1.553,5.206,1.097
			c1.035-0.269,1.913-0.946,2.713-1.655c0.996-0.882,1.939-1.86,2.544-3.045C185.633,142.804,183.508,138.452,180.071,136.72z"/>
		<path style="fill:#D7B580;" d="M177.435,151.762c-1.442,0-2.873-0.601-4.328-1.281c-0.834-0.391-1.781-0.834-2.51-1.567
			c-0.748-0.751-1.181-1.716-1.563-2.567c-0.629-1.396-1.34-2.978-1.626-4.67c-0.321-1.904-0.018-3.683,0.851-5.011
			c0.444-0.677,1.008-1.181,1.629-1.457c0.686-0.304,1.418-0.338,2.171-0.347c2.638-0.033,5.645,0.11,8.235,1.414l0,0
			c1.996,1.006,3.601,2.871,4.293,4.988c0.602,1.84,0.473,3.754-0.362,5.39c-0.692,1.356-1.784,2.418-2.657,3.192
			c-0.836,0.739-1.766,1.464-2.917,1.763C178.244,151.715,177.839,151.762,177.435,151.762z M172.679,135.852
			c-0.204,0-0.406,0.001-0.607,0.004c-0.67,0.008-1.267,0.034-1.78,0.262c-0.448,0.199-0.863,0.576-1.202,1.093
			c-0.731,1.118-0.981,2.645-0.701,4.3c0.264,1.566,0.948,3.086,1.551,4.428c0.348,0.774,0.743,1.652,1.361,2.275
			c0.605,0.608,1.43,0.994,2.228,1.367c1.691,0.79,3.338,1.466,4.87,1.067c0.95-0.247,1.767-0.889,2.509-1.546
			c0.809-0.716,1.815-1.692,2.432-2.899c0.915-1.792,0.67-3.507,0.303-4.63c-0.612-1.871-2.03-3.52-3.796-4.409l0,0
			C177.64,136.051,175.029,135.852,172.679,135.852z"/>
	</g>
	<path style="fill:#FBDEAC;" d="M168.362,143.356c0.761-2.256,2.193-4.383,4.261-5.527c2.181-1.206,4.771-1.29,7.19-0.965
		c0.257,0.035,0.508,0.097,0.763,0.141c-0.166-0.1-0.333-0.198-0.506-0.285c-2.441-1.23-5.272-1.395-8.005-1.361
		c-0.671,0.009-1.362,0.032-1.975,0.305c-0.588,0.261-1.062,0.737-1.415,1.275c-0.883,1.347-1.044,3.067-0.776,4.655
		C168.001,142.195,168.17,142.779,168.362,143.356z"/>
	<path style="fill:#E9D3A5;" d="M180.071,136.72c-0.21-0.106-0.426-0.193-0.641-0.284c0.705,0.965,1.287,2.006,1.66,3.12
		c0.847,2.53,0.054,5.172-2.267,6.619c-2.062,1.285-5.979,1.607-9.011,0.666c0.304,0.627,0.65,1.232,1.138,1.723
		c0.658,0.663,1.523,1.072,2.37,1.467c1.641,0.767,3.452,1.553,5.206,1.097c1.035-0.269,1.913-0.946,2.713-1.655
		c0.996-0.882,1.939-1.86,2.544-3.045C185.633,142.804,183.508,138.452,180.071,136.72z"/>
	<g>
		<path style="fill:#829B0F;" d="M180.065,91.63c-0.411-0.358-1.096-0.142-1.492,0.12c-0.092,0.06-0.181,0.123-0.268,0.189
			c-0.013,0.008-0.021,0.022-0.034,0.031c-0.757,0.153-1.525,0.273-2.289,0.37c-0.705,0.089-1.432-0.004-2.055-0.491
			c-0.253-0.198-0.652,0.146-0.813,0.31c-0.196,0.199-0.537,0.62-0.411,0.929c0.414,1.022,1.459,1.871,2.524,2.126
			c0.591,0.141,1.216,0.262,1.825,0.225c1.328-0.081,2.629-1.096,3.102-2.315C180.329,92.675,180.496,92.004,180.065,91.63z"/>
		<g>
			<path style="fill:#829B0F;" d="M187.715,87.633c-0.273-0.579-1-0.71-1.554-0.473c-0.051,0.022-0.102,0.044-0.153,0.066
				c-0.391,0.171-0.741,0.356-1.08,0.618c-0.102,0.079-0.198,0.167-0.299,0.248c-0.104,0.084-0.208,0.166-0.311,0.25
				c-0.013,0.007-0.025,0.015-0.038,0.023c-0.21,0.095-0.424,0.17-0.648,0.223c0.108-0.024,0.215-0.048,0.323-0.072
				c0.107-0.049,0.214-0.098,0.32-0.148c-0.023,0.013-0.045,0.028-0.068,0.04c-0.079,0.034-0.158,0.069-0.236,0.104
				c0.029-0.007,0.058-0.013,0.087-0.02c-0.031,0.007-0.062,0.015-0.093,0.022c-0.059,0.027-0.119,0.05-0.178,0.078
				c0.054-0.025,0.107-0.049,0.161-0.074c-0.328,0.069-0.651,0.14-0.975,0.232c0.12-0.029,0.24-0.059,0.359-0.088
				c-0.249,0.061-0.509,0.094-0.749,0.186c-0.01,0.004-0.003,0.002-0.01,0.005c-0.095,0.02-0.189,0.04-0.285,0.056
				c-0.351,0.059-0.66,0.32-0.886,0.58c-0.204,0.235-0.479,0.622-0.451,0.958c0.022,0.264,0.043,0.546,0.123,0.799
				c0.073,0.23,0.277,0.469,0.417,0.65c0.106,0.137,0.297,0.199,0.451,0.274c0.079,0.038,0.159,0.074,0.241,0.104
				c0.165,0.061,0.333,0.1,0.507,0.12c0.217,0.025,0.421,0.05,0.635,0.013c0.232-0.04,0.466-0.085,0.694-0.146
				c0.356-0.094,0.699-0.267,1.027-0.427c0.373-0.181,0.71-0.432,1.03-0.695c0.494-0.407,0.956-0.883,1.261-1.45
				C187.655,89.1,188.036,88.312,187.715,87.633z"/>
			<path style="fill:#829B0F;" d="M183.97,88.512c-0.005,0.001-0.011,0.002-0.016,0.004c-0.002,0.001-0.004,0.002-0.006,0.003
				c0.006-0.001,0.011-0.003,0.017-0.004C183.966,88.513,183.968,88.513,183.97,88.512z"/>
		</g>
		<path style="fill:#829B0F;" d="M194.959,81.755c-0.082-0.194-0.224-0.318-0.428-0.372c-0.234-0.045-0.462-0.022-0.684,0.07
			l-0.878,0.51c-0.014,0.013-0.028,0.027-0.042,0.04c-0.143,0.112-0.319,0.313-0.469,0.465c-0.172,0.174-0.323,0.38-0.451,0.59
			c-0.06,0.034-0.117,0.073-0.178,0.104c-0.298,0.13-0.599,0.253-0.896,0.385c-0.179,0.079-0.413,0.221-0.616,0.249
			c-0.01,0.002-0.006,0.001-0.019,0.004c-0.057,0.013-0.115,0.024-0.174,0.034c-0.114,0.019-0.229,0.028-0.344,0.034
			c-0.454,0.022-0.959,0.547-1.178,0.904c-0.103,0.168-0.195,0.347-0.248,0.538c-0.045,0.162-0.064,0.462,0.097,0.584
			c0.483,0.366,1.061,0.534,1.66,0.539c0.425,0.004,0.865-0.006,1.283-0.083c1.014-0.186,1.88-0.763,2.566-1.52
			c0.378-0.417,0.674-0.922,0.872-1.449c0.134-0.356,0.207-0.694,0.219-1.074C195.057,82.119,195.067,81.926,194.959,81.755z"/>
		<path style="fill:#829B0F;" d="M214.711,78.238c-0.263-0.155-0.472-0.257-0.796-0.219c-0.276,0.032-0.547,0.103-0.809,0.192
			c-0.265,0.091-0.522,0.193-0.789,0.273c-0.345,0.064-0.699,0.105-1.048,0.102c-0.22-0.027-0.438-0.066-0.658-0.095
			c-0.241-0.032-0.473-0.1-0.696-0.197c-0.036-0.02-0.074-0.038-0.109-0.061c-0.311-0.191-0.719,0.065-0.95,0.277
			c-0.148,0.136-0.282,0.289-0.395,0.455c-0.111,0.162-0.269,0.467-0.252,0.678c0.044,0.524,0.17,1.045,0.473,1.481
			c0.29,0.416,0.809,0.688,1.272,0.861c0.299,0.112,0.641,0.107,0.958,0.103c0.239-0.003,0.476-0.032,0.71-0.079
			c0.529-0.106,1.004-0.242,1.467-0.533c0.309-0.194,0.583-0.415,0.84-0.669c0.368-0.364,0.623-0.777,0.844-1.238
			c0.113-0.247,0.169-0.507,0.17-0.778C214.943,78.573,214.865,78.389,214.711,78.238z"/>
		<path style="fill:#829B0F;" d="M223.629,79.509c-0.092-0.184-0.277-0.3-0.493-0.246c-0.072,0.018-0.145,0.025-0.219,0.026
			c0.086,0.003,0.172,0.006,0.258,0.01c-0.295-0.011-0.489,0.007-0.767,0.117c-0.081,0.032-0.164,0.056-0.248,0.079
			c-0.132,0.033-0.265,0.065-0.397,0.099c0.108-0.028,0.216-0.055,0.323-0.083c-0.272,0.065-0.548,0.092-0.828,0.082
			c0.092,0.004,0.183,0.008,0.275,0.012c-0.108-0.006-0.215-0.008-0.323-0.011c-0.355-0.019-0.7-0.099-1.026-0.239
			c-0.168-0.093-0.33-0.193-0.473-0.324c-0.153-0.14-0.435-0.087-0.6-0.015c-0.24,0.104-0.444,0.263-0.627,0.447
			c-0.193,0.194-0.381,0.424-0.487,0.679c-0.085,0.203-0.202,0.493-0.098,0.709c0.188,0.391,0.461,0.758,0.805,1.025
			c0.334,0.259,0.754,0.487,1.178,0.537c0.543,0.064,1.114,0.048,1.62-0.181c0.528-0.239,0.979-0.517,1.378-0.951
			c0.262-0.284,0.499-0.67,0.648-1.027C223.608,80.067,223.734,79.72,223.629,79.509z"/>
		<path style="fill:#829B0F;" d="M251.973,95.484c-0.034-0.04-0.064-0.081-0.096-0.122c-0.108-0.163-0.217-0.324-0.364-0.462
			c-0.13-0.121-0.245-0.256-0.35-0.399c0.063,0.088,0.126,0.177,0.189,0.265c-0.109-0.155-0.226-0.303-0.341-0.453
			c-0.198-0.298-0.344-0.622-0.422-0.972c-0.022-0.128-0.044-0.256-0.07-0.384c0.018,0.095,0.036,0.19,0.054,0.285
			c-0.032-0.172-0.04-0.34-0.036-0.514c0-0.011-0.001-0.003-0.001-0.008c0.021-0.158,0.033-0.291-0.012-0.465
			c-0.011-0.042-0.027-0.081-0.034-0.124c-0.025-0.154-0.222-0.218-0.35-0.22c-0.21-0.003-0.382,0.09-0.564,0.192
			c-0.732,0.408-1.243,1.196-1.532,1.97c-0.233,0.626-0.349,1.278-0.273,1.947c0.035,0.304,0.097,0.609,0.184,0.902
			c0.096,0.327,0.235,0.555,0.445,0.832c0.122,0.16,0.257,0.315,0.414,0.443c0.253,0.206,0.589,0.266,0.904,0.301
			c0.797,0.089,1.487-0.492,1.937-1.093C252.044,96.886,252.464,96.064,251.973,95.484z"/>
		<path style="fill:#829B0F;" d="M256.404,100.409c-0.197-0.018-0.384-0.075-0.561-0.161l0.22,0.111
			c-0.148-0.075-0.29-0.151-0.447-0.204c-0.047-0.016-0.092-0.038-0.138-0.057c-0.362-0.194-0.702-0.439-0.95-0.767
			c-0.091-0.155-0.16-0.32-0.199-0.496c-0.005-0.064-0.012-0.129-0.009-0.194c0.009-0.171-0.092-0.375-0.277-0.407
			c-0.189-0.033-0.371,0.038-0.534,0.125c-0.496,0.264-0.856,0.736-1.033,1.263c-0.259,0.771-0.174,1.702,0.254,2.399
			c0.12,0.196,0.251,0.413,0.431,0.561c0.119,0.099,0.248,0.182,0.385,0.254c0.122,0.064,0.292,0.173,0.44,0.192
			c0.159,0.02,0.322,0.023,0.483,0.024c0.18,0.001,0.357-0.023,0.531-0.066c0.158-0.021,0.304-0.073,0.438-0.155
			c0.17-0.076,0.323-0.178,0.46-0.307c0.257-0.231,0.473-0.494,0.639-0.798c0.122-0.224,0.263-0.521,0.24-0.785
			C256.757,100.724,256.671,100.434,256.404,100.409z"/>
		<path style="fill:#829B0F;" d="M262.25,105.225c-0.099-0.278-0.444-0.415-0.717-0.372c-0.11,0.018-0.219,0.02-0.33,0.016
			c-0.162-0.014-0.324-0.029-0.488-0.038c0.114,0.007,0.227,0.015,0.34,0.022c-0.384-0.03-0.747-0.122-1.098-0.275
			c-0.206-0.126-0.387-0.283-0.538-0.472c-0.095-0.16-0.168-0.33-0.213-0.511c-0.006-0.066-0.016-0.131-0.015-0.197
			c0.004-0.204-0.113-0.443-0.334-0.483c-0.222-0.041-0.435,0.038-0.629,0.139c-0.585,0.304-0.994,0.853-1.2,1.469
			c-0.155,0.463-0.207,0.988-0.13,1.472c0.044,0.278,0.098,0.553,0.209,0.813c0.108,0.252,0.268,0.483,0.437,0.697
			c0.124,0.158,0.263,0.282,0.438,0.38c0.231,0.13,0.5,0.286,0.769,0.33c0.195,0.032,0.396,0.039,0.593,0.044
			c0.219,0.006,0.432-0.07,0.64-0.131c0.32-0.095,0.63-0.252,0.915-0.42c0.348-0.205,0.637-0.504,0.877-0.825
			c0.215-0.287,0.435-0.638,0.496-0.998C262.31,105.667,262.326,105.436,262.25,105.225z"/>
		<path style="fill:#829B0F;" d="M270.608,114.827c-0.174-0.243-0.457-0.357-0.765-0.321c-0.011,0.001-0.021,0-0.031,0.001
			c-0.04-0.01-0.082-0.016-0.124-0.027c-0.118-0.029-0.241-0.037-0.359-0.069c-0.146-0.039-0.287-0.1-0.426-0.165
			c-0.249-0.145-0.466-0.331-0.654-0.549c-0.248-0.405-0.416-0.871-0.52-1.333c-0.026-0.167-0.05-0.334-0.075-0.501
			c-0.04-0.273-0.123-0.539-0.189-0.806c-0.032-0.128-0.193-0.239-0.312-0.271c-0.223-0.059-0.467,0.043-0.659,0.143
			c-0.475,0.245-0.947,0.719-1.143,1.222c-0.166,0.427-0.345,0.852-0.445,1.3c-0.085,0.381-0.145,0.763-0.182,1.152
			c-0.074,0.774-0.028,1.583,0.342,2.288c0.34,0.647,0.828,1.181,1.519,1.443c1.1,0.418,2.13-0.136,3.005-0.772l0.415-0.41
			c0.116-0.156,0.232-0.312,0.348-0.468c0.218-0.35,0.377-0.736,0.412-1.149C270.788,115.274,270.763,115.044,270.608,114.827z"/>
		<path style="fill:#829B0F;" d="M276.024,123.355c-0.07-0.249-0.24-0.422-0.39-0.626c0.059,0.083,0.117,0.166,0.176,0.249
			c-0.129-0.184-0.266-0.394-0.443-0.542c-0.108-0.091-0.237-0.172-0.351-0.256c-0.198-0.145-0.372-0.307-0.528-0.492
			c-0.145-0.235-0.254-0.492-0.327-0.759c-0.019-0.144-0.03-0.288-0.023-0.433c0.006-0.027,0.009-0.054,0.015-0.081
			c0.02-0.042,0.039-0.084,0.06-0.126c0.15-0.29,0.277-0.973-0.198-1.061c-0.524-0.096-1.01,0.361-1.338,0.702
			c-0.588,0.612-0.986,1.388-1.223,2.197c-0.201,0.687-0.199,1.385,0.007,2.068c0.066,0.217,0.159,0.426,0.279,0.619
			c0.164,0.266,0.35,0.557,0.603,0.748c0.359,0.271,0.734,0.392,1.185,0.376c0.469-0.016,0.898-0.176,1.298-0.419
			c0.423-0.258,0.76-0.646,0.994-1.077C276.007,124.101,276.133,123.742,276.024,123.355z"/>
		<path style="fill:#829B0F;" d="M282.836,128.156c-0.19,0.008-0.383,0.011-0.573,0.006c-0.241-0.007-0.462,0.038-0.702,0.07
			c-0.432,0.059-0.846,0.101-1.277,0.091c-0.319-0.046-0.627-0.129-0.921-0.26c-0.413-0.236-0.797-0.519-1.095-0.89
			c-0.091-0.147-0.181-0.295-0.236-0.46c-0.013-0.038-0.02-0.083-0.035-0.12c-0.007-0.108-0.014-0.214-0.008-0.322
			c0.028-0.516-0.51-0.61-0.886-0.452c-0.552,0.232-1.103,0.758-1.316,1.324c-0.332,0.883-0.408,1.753-0.149,2.667
			c0.197,0.693,0.626,1.366,1.238,1.757c0.788,0.504,1.635,0.704,2.568,0.68c1.207-0.032,2.276-0.642,3.132-1.46
			c0.497-0.475,0.963-1.049,1.036-1.759C283.664,128.502,283.39,128.132,282.836,128.156z"/>
		<path style="fill:#829B0F;" d="M288.27,143.602c-0.38-0.389-0.962-0.516-1.484-0.43c-1.022,0.17-1.894,0.839-2.586,1.577
			c-0.701,0.748-1.232,1.742-1.374,2.764c-0.066,0.474-0.144,1.107,0.095,1.553c0.168,0.313,0.363,0.489,0.711,0.577
			c0.204,0.051,0.415,0.054,0.624,0.046c0.36-0.014,0.817-0.306,1.07-0.532c0.355-0.318,0.671-0.698,0.858-1.14
			c0.063-0.15,0.133-0.296,0.199-0.445c0.157-0.353,0.203-0.7,0.218-1.08c0.005-0.126-0.003-0.216-0.021-0.312
			c0.003,0.014,0.007,0.029,0.01,0.043c-0.035-0.166-0.034-0.333-0.037-0.5c0.068-0.044,0.133-0.093,0.202-0.136
			c0.011-0.007,0.023-0.013,0.034-0.02c0.159-0.07,0.318-0.139,0.481-0.199c0.39-0.143,0.73-0.536,0.924-0.882
			C288.33,144.245,288.503,143.841,288.27,143.602z"/>
		<path style="fill:#829B0F;" d="M282.551,151.757c-0.285-0.544-0.979-0.38-1.408-0.099c-0.7,0.459-1.322,0.969-1.901,1.574
			c-0.589,0.615-1.125,1.409-1.408,2.218c-0.253,0.724-0.409,1.509-0.25,2.272c0.105,0.507,0.203,0.845,0.555,1.239
			c0.219,0.246,0.602,0.37,0.925,0.431c0.762,0.144,1.576-0.428,2.037-0.986c0.234-0.284,0.439-0.594,0.59-0.931
			c0.144-0.323,0.272-0.876,0.104-1.224c-0.057-0.118-0.105-0.239-0.141-0.366c-0.041-0.146-0.093-0.258-0.155-0.396
			c-0.085-0.188-0.157-0.378-0.219-0.572c-0.013-0.112-0.022-0.225-0.023-0.338c0.01-0.064,0.024-0.126,0.038-0.189
			c0.03-0.064,0.059-0.123,0.078-0.163c0.021-0.033,0.04-0.066,0.061-0.098c0.03-0.036,0.06-0.073,0.091-0.109
			c0.13-0.151,0.268-0.296,0.409-0.437c0.263-0.265,0.457-0.637,0.573-0.985C282.588,152.356,282.678,152.001,282.551,151.757z"/>
		<path style="fill:#829B0F;" d="M278.911,164.799c0.01-0.059,0.021-0.117,0.034-0.175c0.307-0.233,0.552-0.582,0.731-0.916
			c0.14-0.26,0.297-0.605,0.267-0.909c-0.019-0.19-0.071-0.366-0.207-0.506c-0.196-0.202-0.642-0.153-0.862-0.05
			c-1.477,0.687-2.682,2.009-3.205,3.562c-0.122,0.363-0.241,0.73-0.289,1.111c-0.044,0.348-0.095,0.723-0.04,1.073
			c0.035,0.218,0.07,0.457,0.152,0.658c0.074,0.181,0.191,0.403,0.331,0.53c0.319,0.288,0.718,0.363,1.128,0.359
			c0.485-0.006,0.958-0.403,1.279-0.722c0.382-0.38,0.717-0.848,0.83-1.386c0.044-0.209,0.061-0.42,0.075-0.631
			c0.019-0.146,0.04-0.298,0.025-0.437c-0.017-0.165-0.075-0.333-0.114-0.495c0.029,0.129,0.058,0.258,0.087,0.387
			c-0.054-0.252-0.111-0.502-0.171-0.752C278.913,165.268,278.908,165.034,278.911,164.799z"/>
		<g>
			<path style="fill:#829B0F;" d="M267.26,189.574c-0.326-0.283-0.827-0.056-1.134,0.125c-0.009,0.005-0.02,0.009-0.029,0.014
				c0.035-0.014,0.049-0.02,0.102-0.04c-0.052,0.02-0.103,0.045-0.154,0.066c-0.011,0.005-0.021,0.011-0.031,0.015
				c-0.265,0.104-0.503,0.242-0.749,0.383c-0.024,0.014-0.049,0.027-0.074,0.04c-0.163,0.069-0.328,0.136-0.492,0.203
				c-0.159,0.065-0.321,0.122-0.486,0.171c-0.019,0.006-0.046,0.011-0.071,0.016c0.034-0.006,0.047-0.008,0.1-0.017
				c-0.079,0.012-0.157,0.032-0.235,0.046c-0.365,0.063-0.734,0.083-1.103,0.067c0.104,0.006,0.208,0.012,0.313,0.018
				c-0.148-0.009-0.296-0.014-0.444-0.019c-0.419-0.026-0.83-0.097-1.23-0.227c-0.265-0.086-0.67,0.095-0.877,0.23
				c-0.296,0.193-0.546,0.436-0.759,0.718c-0.187,0.248-0.379,0.55-0.436,0.861c-0.045,0.245-0.083,0.581,0.143,0.757
				c0.433,0.337,0.966,0.651,1.5,0.79c0.585,0.152,1.253,0.157,1.851,0.079c0.746-0.097,1.44-0.326,2.086-0.709
				c0.572-0.339,1.118-0.749,1.517-1.283c0.283-0.378,0.504-0.743,0.725-1.162C267.457,190.404,267.569,189.842,267.26,189.574z"/>
			<path style="fill:#829B0F;" d="M266.045,189.739c0.018-0.008,0.035-0.017,0.053-0.026c-0.203,0.079-0.175,0.078-0.084,0.041
				c0.007-0.003,0.012-0.007,0.019-0.01C266.037,189.743,266.041,189.741,266.045,189.739z"/>
			<path style="fill:#829B0F;" d="M264.143,190.566C263.939,190.6,264.034,190.589,264.143,190.566L264.143,190.566z"/>
		</g>
		<path style="fill:#829B0F;" d="M216.326,206.112c-0.087,0.041-0.174,0.079-0.264,0.111c-0.02,0.007-0.028,0.01-0.042,0.016
			c-0.185,0.03-0.369,0.065-0.555,0.089c-0.377,0.048-0.759,0.079-1.14,0.074c-0.348-0.041-0.681-0.13-1.002-0.27
			c-0.432-0.243-0.807-0.56-1.108-0.955c-0.16-0.256-0.293-0.524-0.38-0.816c-0.072-0.242-0.378-0.338-0.599-0.305
			c-0.286,0.043-0.538,0.186-0.768,0.356c-0.278,0.206-0.542,0.468-0.722,0.766c-0.168,0.277-0.381,0.648-0.34,0.983
			c0.179,1.458,0.983,2.674,2.309,3.323c0.687,0.336,1.497,0.437,2.241,0.261c1.089-0.258,1.984-0.932,2.731-1.746
			c0.346-0.377,0.691-0.987,0.594-1.513C217.201,206.034,216.711,205.928,216.326,206.112z"/>
		<path style="fill:#829B0F;" d="M227.348,211.575c-0.178-0.26-0.501-0.218-0.765-0.116c-0.096,0.037-0.36,0.1,0.05-0.001
			c-0.08,0.021-0.16,0.042-0.24,0.062c-0.19-0.004-0.39,0.063-0.576,0.118c-0.151,0.032-0.303,0.063-0.454,0.101
			c0.125-0.03,0.25-0.06,0.374-0.09c-0.336,0.074-0.681,0.117-1.026,0.12c-0.32-0.035-0.628-0.115-0.922-0.247
			c-0.445-0.253-0.843-0.565-1.151-0.976c-0.111-0.18-0.215-0.365-0.283-0.566c-0.036-0.105-0.056-0.212-0.085-0.318
			c0.049,0.179,0.001-0.006-0.003-0.051c-0.006-0.066-0.008-0.132-0.009-0.198c-0.008-0.51-0.505-0.476-0.846-0.296
			c-0.488,0.258-0.935,0.768-1.072,1.31c-0.369,1.462,0.017,3.387,1.429,4.172c0.716,0.398,1.579,0.616,2.395,0.434
			c0.696-0.156,1.355-0.444,1.887-0.933c0.526-0.483,0.914-0.986,1.254-1.611C227.447,212.229,227.525,211.833,227.348,211.575z"/>
	</g>
	<g>
		<path style="fill:#DCBE7B;" d="M62.093,115.865c-7.116-8.161-12.114-17.928-13.848-28.659c2.222-0.986,4.284-2.331,6.056-4.001
			c0.358-0.337,0.4-1.022-0.182-0.545c-3.754,3.074-8.246,5.04-13.062,5.653c-0.256,0.033-0.776,0.773-0.365,0.749
			c2.424-0.143,4.813-0.713,7.053-1.642c-0.001,0.01-0.012,0.023-0.01,0.032c1.514,10.798,6.136,21.244,13.707,29.162
			C61.653,116.837,62.313,116.118,62.093,115.865z"/>
		<path style="fill:#DCBE7B;" d="M35.871,201.106c-3.371-1.149-6.393-3.124-8.8-5.745c-2.689-2.927-4.711-6.38-6.646-9.827
			c-0.166-0.295-0.793,0.348-0.675,0.603c1.715,3.726,3.389,7.538,6.005,10.737c2.325,2.842,5.336,5.292,9.043,5.891
			C35.425,202.867,36.674,201.38,35.871,201.106z"/>
		<path style="fill:#DCBE7B;" d="M21.793,208.204c-1.287-2.14-1.969-4.619-1.343-7.093c0.091-0.358-0.394,0.016-0.452,0.155
			c-1.054,2.516-0.938,5.714,0.892,7.85C21.15,209.42,21.979,208.513,21.793,208.204z"/>
		<path style="fill:#DCBE7B;" d="M152.208,73.312c-5.999,3.618-13.204,4.897-20.087,3.577c-0.202-0.039-0.619,0.499-0.382,0.567
			c6.923,1.983,14.501,0.718,20.443-3.351C152.521,73.872,152.9,72.895,152.208,73.312z"/>
		<path style="fill:#DCBE7B;" d="M148.474,80.799c-2.458,0.897-5.226,1.089-7.745,0.354c-0.298-0.087-0.896,0.705-0.547,0.82
			c2.7,0.891,5.6,0.728,8.121-0.606c0.146-0.077,0.324-0.236,0.355-0.409C148.685,80.807,148.625,80.744,148.474,80.799z"/>
		<path style="fill:#DCBE7B;" d="M127.546,102.579c0.012-0.319-0.546,0.176-0.565,0.385c-0.415,4.464-0.376,8.973,0.287,13.411
			c0.052,0.345,0.89-0.346,0.854-0.661C127.628,111.35,127.377,106.97,127.546,102.579z"/>
	</g>
	<path style="opacity:0.52;fill:#A8D052;" d="M71.21,230.809c0,0-4.687-13.32,5.426-24.419c10.113-11.1,2.467-18.746-7.893-8.386
		S58.877,226.615,71.21,230.809z"/>
	<path style="fill:#A8D052;" d="M68.457,223.691c0,0-0.462-10.848,6.694-18.234c7.155-7.386,1.385-12.002-5.078-4.155
		C63.61,209.15,66.149,221.152,68.457,223.691z"/>
	<path style="fill:#96BA4A;" d="M87.336,195.094c0,0,3.129,9.147-4.574,11.795c6.259,2.648,7.463,16.851-7.462,20.702
		c0,0,10.869,9.396,19.973-5.876c0.587,8.811,19.971,18.503,36.418,4.112c-15.272,1.175-26.139-0.881-29.957-10.573
		C97.916,205.562,94.084,198.43,87.336,195.094z"/>
	<path style="fill:#A8D052;" d="M92.247,202.21c0,0,0.651,18.139-7.389,21.764C91.088,227.105,102.254,216.578,92.247,202.21z"/>
	<path style="fill:#A8D052;" d="M112.598,195.984c0,0-7.278-29.112,13.7-43.239s37.246-4.709,37.246-4.709
		s-15.619-17.423-42.811,1.712C97.614,166.017,112.598,195.984,112.598,195.984z"/>
	<g>
		<path style="fill:#96BA4A;" d="M201.798,227.023c-0.877,23.45-12.56,31.214-21.941,34.341c12.923-9.986,8.177-21.561,8.177-21.561
			s-0.471,6.442-3.614,8.17c2.2-7.07-1.627-17.741-1.627-17.741c1.175,18.797-10.962,26.614-25.646,27.201
			c-14.685,0.587-17.821,5.693-17.821,5.693s2.35-7.636,7.636-15.272c2.757-3.982,10.573-9.398,13.51-14.098
			c2.937-4.699,5.874,0,7.049,5.874c5.286-8.224-1.175-19.384-10.573-17.035c-9.398,2.35-9.398,8.811-3.524,8.811
			c-8.223,7.636-38.768,16.447-56.977,14.685c-18.209-1.762-17.622,7.049-34.656,17.034c-13.54,5.609-23.941,7.129-31.826,6.662
			c0.814,0.585,1.654,1.16,2.554,1.712c3.893,2.123,9.201,0,9.201,0s16.854,30.035,50.789,22.11
			c6.909,1.626,18.289-3.658,18.289-3.658s24.938,8.124,52.252-9.497c17.622-10.279,35.537-18.503,39.062-37.593
			C203.233,236.791,202.931,231.581,201.798,227.023z"/>
	</g>
	<g>
		<path style="fill:#A8D052;" d="M114.62,268.413c-2.994,14.424-12.796,21.654-22.456,25.267c0.117-0.026,0.229-0.043,0.346-0.07
			c6.909,1.626,18.289-3.658,18.289-3.658s0.169,0.053,0.462,0.136C116.823,282.817,116.906,274.618,114.62,268.413z"/>
	</g>
	<path style="fill:#A8D052;" d="M182.317,233.17c0,0-0.136,20.141-17.469,25.049C174.827,262.246,189.806,249.911,182.317,233.17z"
		/>
	<path style="fill:#A8D052;" d="M134.199,177.444c0,0,6.013-11.638,20.56-8.534c6.401,1.552,10.28,7.177,10.474,12.026
		c-0.194-11.056-5.237-13.577-10.474-14.353C149.523,165.806,139.437,167.164,134.199,177.444z"/>
	<path style="fill:#A8D052;" d="M133.556,200.786c0,0,11.151,15.475,30.722-1.365C158.361,211.027,139.018,214.895,133.556,200.786z
		"/>
	<path style="fill:#A8D052;" d="M17.723,220.121c0,0,13.784,4.824,26.419-8.041C38.169,223.337,25.994,227.932,17.723,220.121z"/>
	<g>
		<path style="fill:#F3E6D0;" d="M44.691,170.025c-8.517-2.643-20.117-12.506-25.552-28.488c-1.396-4.105-3.323-7.295-5.353-7.066
			c0.472,1.402,0.815,3.14,0.976,5.304c1.693,22.751,13.512,48.633,30.255,54.969c5.222-7.382,6.135-14.439,6.135-14.439
			C52.327,173.549,50.565,170.906,44.691,170.025z"/>
	</g>
	<g>
		<path style="fill:#F3E6D0;" d="M19.122,145.767c1.623,5.923,3.926,11.691,6.898,17.067c3.914,7.079,9.085,13.695,15.802,18.302
			c2.499,1.714,5.215,3.093,8.067,4.067c1.002-2.931,1.263-4.898,1.263-4.898c1.175-6.755-0.587-9.398-6.461-10.279
			c-8.517-2.643-20.117-12.506-25.552-28.488c-0.554-1.63-1.193-3.11-1.888-4.295C17.726,140.122,18.358,142.975,19.122,145.767z"/>
	</g>
	<g>
		<path style="fill:#F3E6D0;" d="M48.244,90.433c4.97,22.512,21.29,40.365,36.431,52.623c0.641-0.46,1.005-0.73,1.005-0.73
			s8.645-6.076,11.288-9.013c2.643-2.937-4.699-4.993-16.741-16.153C52.034,88.671,55.852,54.896,60.551,45.204
			c3.657-7.542,1.611-9.192-2.793-5.964C50.161,50.491,43.244,67.787,48.244,90.433z"/>
	</g>
	<g>
		<path style="fill:#F3E6D0;" d="M56.468,92.195c6.4,21.698,22.258,36.343,35.712,45.303c1.927-1.512,3.788-3.074,4.789-4.186
			c2.643-2.937-4.699-4.993-16.741-16.153C52.034,88.671,55.852,54.896,60.551,45.204c2.895-5.971,2.208-8.236-0.386-7.324
			C54.862,47.368,48.624,65.603,56.468,92.195z"/>
	</g>
	<g>
		<path style="fill:#FFFDF8;" d="M45.778,54.826c-9.655,17.384-11.338,40.128-2.464,58.187c0.329,0.669,1.669-0.701,1.448-1.28
			c-3.468-9.09-5.485-18.728-5.216-28.481c0.272-9.882,2.662-19.734,7.071-28.589C47.01,53.875,45.986,54.45,45.778,54.826z"/>
		<path style="fill:#FFFDF8;" d="M68.251,146.99c-8.852-7.431-16.101-16.829-20.387-27.597c-0.147-0.37-0.973,0.424-0.853,0.766
			c3.896,11.1,10.626,21.083,19.957,28.308C67.49,148.871,68.748,147.408,68.251,146.99z"/>
	</g>
	<g>
		<path style="fill:#F3E6D0;" d="M163.681,111.618c-0.783-7.833-11.749-52.478-22.453-71.798
			C130.523,20.5,108.331,3.53,103.37,5.096c-0.123,0.039-0.22,0.095-0.315,0.154c14.872,14.342,35.659,46.34,36.505,113.427
			c0.877-0.006,1.774-0.009,2.712-0.009C161.592,118.668,164.464,119.451,163.681,111.618z"/>
	</g>
	<g>
		<path style="fill:#F3E6D0;" d="M163.681,111.618c-0.783-7.833-11.749-52.478-22.453-71.798
			c-8.807-15.895-25.381-30.189-33.746-33.889c17.536,16.526,43.312,51.177,44.652,112.754
			C162.601,118.628,164.305,117.854,163.681,111.618z"/>
	</g>
	<g>
		<path style="fill:#FFFDF8;" d="M111.359,19.911c-0.241-0.456-1.214,0.529-1.035,0.925c4.534,10.048,7.911,20.636,10.163,31.424
			c2.259,10.821,2.977,21.865,3.02,32.901c0.005,1.202,1.92-0.51,1.976-1.266C127.102,61.917,121.626,39.303,111.359,19.911z"/>
		<path style="fill:#FFFDF8;" d="M125.577,88.997c-0.041-0.87-1.464,0.389-1.465,0.965c-0.015,6.945-0.354,13.881-0.346,20.824
			c0.001,0.495,0.524,0.349,0.802,0.18c0.417-0.253,0.786-0.753,0.832-1.246C126.046,102.818,125.907,95.914,125.577,88.997z"/>
	</g>
	<path style="fill:#A8D052;" d="M59.585,156.934c0,0,9.297,4.933,30.357-14.23C97.721,135.305,70.21,174.199,59.585,156.934z"/>
	<path style="fill:#A8D052;" d="M46.447,270.746c0,0,22.093-7.648,32.573-12.463c10.48-4.815,26.625-7.648,37.388-8.214
		c10.763-0.566,20.085-5.911,20.085-5.911s-10.455,7.611-17.536,10.16C111.877,256.867,73.638,273.296,46.447,270.746z"/>
	<path style="fill:#A8D052;" d="M146.658,216.38c0,0,14.248,4.384,27.399-12.275C171.427,215.723,158.714,220.107,146.658,216.38z"
		/>
	<path style="fill:#FFFDF8;" d="M34.895,267.813c-5.092-3.316-9.619-7.398-12.777-12.639c-3.194-5.301-4.895-11.27-5.345-17.424
		c-0.026-0.354-0.563,0.197-0.581,0.395c-1.093,12.33,6.183,25.942,17.465,31.312C34.225,269.728,35.468,268.186,34.895,267.813z"/>
</g>
</svg>
